<svg width="17" height="23" viewBox="0 0 17 23" fill="none" xmlns="http://www.w3.org/2000/svg">
<path d="M8.5 2.81715C5.36219 2.81715 2.80938 5.36996 2.80938 8.50777C2.80938 11.6456 5.36219 14.1984 8.5 14.1984C11.6378 14.1984 14.1906 11.6456 14.1906 8.50777C14.1906 5.36996 11.6378 2.81715 8.5 2.81715ZM8.5 13.6359C5.6725 13.6359 3.37188 11.3353 3.37188 8.50777C3.37188 5.68027 5.6725 3.37965 8.5 3.37965C11.3275 3.37965 13.6281 5.68027 13.6281 8.50777C13.6281 11.3353 11.3275 13.6359 8.5 13.6359ZM14.9303 13.2689L14.9364 11.7023L16.4139 10.2136C17.2038 9.41762 17.2038 8.12293 16.4139 7.32699L15.3105 6.21512L15.3025 4.11793C15.2983 2.99668 14.3828 2.08121 13.2616 2.07699L11.695 2.0709L10.2063 0.594336C9.41031 -0.195508 8.11563 -0.195508 7.31969 0.594336L6.20781 1.69777L4.11063 1.70574C2.98938 1.70996 2.07391 2.62543 2.06969 3.74668L2.0636 5.31324L0.586096 6.80199C-0.203748 7.59793 -0.203748 8.89262 0.586096 9.68855L1.68953 10.8004L1.6975 12.8976C1.70125 13.8951 2.42688 14.7295 3.37656 14.9043L1.2986 20.6137C1.25828 20.7239 1.2911 20.8481 1.38063 20.924C1.47016 21.0004 1.59766 21.0126 1.69985 20.9554L4.5475 19.3668L5.70766 22.4142C5.74938 22.5234 5.85391 22.5956 5.97063 22.5956H5.9725C6.09016 22.5946 6.19469 22.5211 6.23453 22.4104L8.19906 17.0132C8.21172 17.0132 8.22391 17.0142 8.23656 17.0142C8.4175 17.0142 8.59844 16.9898 8.77422 16.9425L10.7645 22.41C10.8048 22.5201 10.9094 22.5942 11.0266 22.5951H11.0284C11.1452 22.5951 11.2497 22.5229 11.2914 22.4137L12.4516 19.3664L15.2992 20.955C15.4019 21.0121 15.5294 20.9995 15.6184 20.9236C15.708 20.8476 15.7403 20.7234 15.7005 20.6132L13.7064 15.135C14.4236 14.8167 14.927 14.0995 14.9303 13.2689ZM3.96297 14.9386L4.4725 14.9404L2.72641 19.7381L2.08657 20.0953L3.96297 14.9386ZM4.79125 18.6975C4.71438 18.6693 4.62953 18.6764 4.55781 18.7162L3.47688 19.319L5.06969 14.9428L5.305 14.9437L6.73 16.3579L5.39781 20.0184L4.95719 18.8615C4.9286 18.7856 4.86813 18.7256 4.79125 18.6975ZM5.965 21.5071L5.70438 20.8223L7.19406 16.7296C7.33375 16.8121 7.48188 16.8764 7.63375 16.9228L5.965 21.5071ZM11.035 21.5071L9.29313 16.7217C9.43094 16.6387 9.56125 16.5389 9.68031 16.4207L9.69016 16.4109L11.2956 20.8218L11.035 21.5071ZM12.4422 18.7162C12.3709 18.6764 12.2856 18.6693 12.2088 18.6975C12.1319 18.7256 12.0709 18.7851 12.0419 18.8615L11.6017 20.0184L10.1298 15.9745L10.7917 15.3173L12.0644 15.3126L13.5227 19.319L12.4422 18.7162ZM14.9139 20.0953L14.2741 19.7381L12.6625 15.3103L12.8894 15.3093C12.9831 15.3089 13.075 15.3018 13.165 15.2892L14.9139 20.0953ZM12.887 14.7473L10.6745 14.7557C10.6005 14.7562 10.5302 14.7853 10.4777 14.8373L9.28422 16.0218C8.70719 16.5946 7.76781 16.5946 7.19031 16.0218L5.62 14.4632C5.5675 14.4112 5.49672 14.3821 5.42313 14.3817L3.74172 14.3751C2.92844 14.3718 2.26422 13.7076 2.26094 12.8943L2.2525 10.6818C2.25203 10.6078 2.22297 10.537 2.17094 10.485L0.98594 9.29199C0.413127 8.71449 0.413127 7.77558 0.98594 7.19808L2.54453 5.62777C2.59656 5.57527 2.6261 5.50449 2.6261 5.4309L2.63266 3.74949C2.63594 2.93621 3.30016 2.27199 4.11344 2.26871L6.32594 2.26027C6.4 2.2598 6.47031 2.23074 6.52281 2.17871L7.71625 0.99418C8.005 0.707773 8.38422 0.564336 8.76297 0.564336C9.14172 0.564336 9.52141 0.707773 9.81016 0.99418L11.3805 2.55277C11.433 2.6048 11.5038 2.63434 11.5773 2.63434L13.2588 2.6409C14.072 2.64418 14.7363 3.3084 14.7395 4.12168L14.748 6.33418C14.7484 6.40824 14.7775 6.47855 14.8295 6.53105L16.0141 7.72449C16.5869 8.30199 16.5869 9.2409 16.0141 9.8184L14.4555 11.3887C14.4034 11.4412 14.3739 11.512 14.3739 11.5856L14.3678 13.2665C14.3645 14.0798 13.7003 14.744 12.887 14.7473ZM11.7494 6.14855C11.5806 5.9798 11.3561 5.88699 11.117 5.88699C10.878 5.88699 10.6534 5.9798 10.4847 6.14855L7.70031 8.9334L6.51578 7.74887C6.16703 7.40012 5.59985 7.40012 5.2511 7.74887L5.23235 7.76762C4.8836 8.11637 4.8836 8.68355 5.23235 9.0323L7.06797 10.8679C7.24235 11.0423 7.4711 11.1295 7.70031 11.1295C7.92953 11.1295 8.15828 11.0423 8.33266 10.8679L11.7681 7.43246C12.1169 7.08371 12.1169 6.51652 11.7681 6.16777L11.7494 6.14855ZM11.3702 7.03402L7.93469 10.4695C7.80531 10.5989 7.59485 10.5989 7.46547 10.4695L5.62985 8.63387C5.50047 8.50449 5.50047 8.29402 5.62985 8.16465L5.6486 8.1459C5.71328 8.08121 5.79813 8.04887 5.88297 8.04887C5.96781 8.04887 6.05313 8.08121 6.11781 8.1459L7.5011 9.52918C7.55406 9.58168 7.62531 9.61168 7.69985 9.61168C7.77438 9.61168 7.8461 9.58215 7.8986 9.52918L10.8822 6.54558C10.9445 6.48324 11.028 6.44902 11.117 6.44902C11.2061 6.44902 11.2895 6.48324 11.3514 6.54558L11.3702 6.56434C11.4325 6.62668 11.4667 6.71012 11.4667 6.79918C11.4667 6.88824 11.4325 6.97168 11.3702 7.03402Z" fill="#00386C"/>
</svg>
