<svg width="40" height="39" viewBox="0 0 40 39" fill="none" xmlns="http://www.w3.org/2000/svg">
<g clip-path="url(#clip0_715_286)">
<path fill-rule="evenodd" clip-rule="evenodd" d="M39.1186 29.891C39.096 29.891 39.096 29.891 39.096 29.891C38.8472 29.891 38.6662 29.6875 38.6662 29.4613L33.0111 19.5987L29.3239 21.6798L33.4861 28.9184C33.5992 29.1446 33.5314 29.416 33.3051 29.5517C33.1016 29.6648 32.8301 29.597 32.6944 29.3708L28.4191 21.9286C28.3286 21.7702 28.306 21.5893 28.3512 21.4309C28.4191 21.25 28.5096 21.1142 28.6679 21.0238L32.7849 18.6938C33.1016 18.5129 33.4861 18.626 33.6671 18.92L39.458 29.0315C39.5258 29.1672 39.5711 29.3029 39.5711 29.4613C39.5484 29.7101 39.3449 29.891 39.1186 29.891Z" fill="#00386C"/>
<path fill-rule="evenodd" clip-rule="evenodd" d="M25.9309 38.2153C25.7951 38.2153 25.682 38.17 25.5915 38.0796L20.0043 32.2887C19.8459 32.1077 19.8459 31.8363 20.0043 31.6553L25.5915 25.3894C25.7047 25.2537 25.9082 25.2084 26.0892 25.2763C26.2702 25.3442 26.3833 25.5025 26.3833 25.6835V28.692H38.7115C39.0282 28.692 39.3449 28.873 39.4806 29.1444C39.5937 29.348 39.5937 29.5742 39.458 29.7552L36.5399 34.1888C36.5173 34.2114 36.5173 34.2341 36.4947 34.2793C36.4042 34.415 36.2232 34.7543 35.7934 34.7543H26.3833V37.7629C26.3833 37.9438 26.2702 38.1022 26.0892 38.17C26.044 38.1927 25.9761 38.2153 25.9309 38.2153ZM20.9543 31.9494L25.4784 36.6318V34.3019C25.4784 34.0531 25.682 33.8495 25.9309 33.8495H35.703V33.8269C35.7256 33.7816 35.7482 33.7364 35.7934 33.6912L38.4853 29.5968H25.9309C25.682 29.5968 25.4784 29.3932 25.4784 29.1444V26.8824L20.9543 31.9494Z" fill="#00386C"/>
<path fill-rule="evenodd" clip-rule="evenodd" d="M4.23769 35.0711C4.10197 35.0711 3.94362 35.0259 3.8079 34.958C3.60431 34.8223 3.53645 34.5508 3.67217 34.3246C3.78528 34.121 4.05672 34.0532 4.26031 34.1663L15.6385 34.0758L15.6159 29.8457L7.26885 29.9136C7.02003 29.9136 6.81644 29.71 6.81644 29.4612C6.81644 29.2124 7.02003 29.0088 7.26885 29.0088L15.8421 28.9409C16.023 28.9409 16.1814 29.0088 16.3171 29.1445C16.4302 29.2576 16.5207 29.416 16.5207 29.5969L16.5433 34.3246C16.5433 34.6866 16.2492 34.9806 15.8873 34.9806L4.23769 35.0711Z" fill="#00386C"/>
<path fill-rule="evenodd" clip-rule="evenodd" d="M4.14717 35.0484C3.92096 35.0484 3.71738 34.9126 3.60427 34.7091L1.18387 30.004C1.16125 29.9814 1.13863 29.9587 1.13863 29.9135C1.04814 29.7778 0.844558 29.4385 1.04814 29.0765L5.66275 20.8652L3.06138 19.3949C2.88041 19.3044 2.78993 19.1235 2.83517 18.9425C2.85779 18.7615 2.9709 18.6032 3.15186 18.5579L10.956 16.5447C11.1822 16.4768 11.4084 16.5899 11.4989 16.8162L14.2133 24.7786C14.2812 24.9596 14.236 25.1405 14.0776 25.2763C13.9419 25.3894 13.7383 25.412 13.58 25.3215L10.956 23.8285L4.89365 34.596C4.75793 34.8674 4.44124 35.0484 4.14717 35.0484ZM1.88511 29.4385C1.90773 29.4385 1.90773 29.4385 1.90773 29.4611C1.93035 29.4837 1.95297 29.5289 1.97559 29.5968L4.21503 33.94L10.3905 22.9916C10.5036 22.788 10.775 22.6975 11.0012 22.8332L12.9692 23.9416L10.775 17.5174L4.46386 19.1461L6.52233 20.2997C6.61282 20.3676 6.7033 20.4581 6.72592 20.5712C6.74854 20.6843 6.74854 20.82 6.68068 20.9105L1.88511 29.4385Z" fill="#00386C"/>
<path fill-rule="evenodd" clip-rule="evenodd" d="M14.5752 14.1923C14.4395 14.1923 14.3264 14.147 14.2359 14.0791L10.1868 11.6361C9.87016 11.4325 9.77968 11.0254 9.96064 10.7313L16.0003 0.778223C16.0682 0.642499 16.2039 0.552017 16.3397 0.461534C16.5432 0.348431 16.8147 0.438913 16.9278 0.66512C17.0409 0.891326 16.973 1.14015 16.7694 1.27588L10.8655 10.9801L14.4848 13.1969L18.8053 6.04883C18.941 5.84524 19.2125 5.77738 19.4161 5.89048C19.6423 6.02621 19.7101 6.29765 19.5744 6.52386L15.1408 13.8756C15.0503 14.0113 14.8919 14.1244 14.7336 14.1696C14.6657 14.1696 14.6205 14.1923 14.5752 14.1923Z" fill="#00386C"/>
<path fill-rule="evenodd" clip-rule="evenodd" d="M27.8311 16.5221C27.8084 16.5221 27.7632 16.5221 27.7406 16.5221L19.5293 14.6672C19.3483 14.622 19.2126 14.4863 19.19 14.2827C19.1674 14.1017 19.2579 13.9208 19.4162 13.8303L22.0402 12.3826L16.0683 1.56991C15.9326 1.32108 15.9326 0.959155 16.0683 0.710328C16.1814 0.529363 16.385 0.41626 16.5886 0.41626H16.6339L21.9271 0.823431H22.0176C22.1985 0.823431 22.5831 0.823431 22.764 1.18536L27.3334 9.44189L29.98 7.97155C30.1384 7.88106 30.342 7.90368 30.4777 8.01679C30.6134 8.12989 30.6813 8.33348 30.636 8.51444L28.2609 16.2055C28.2156 16.3864 28.0347 16.5221 27.8311 16.5221ZM20.8865 14.0565L27.537 15.5495L29.4371 9.30616L27.3787 10.4598C27.1751 10.5729 26.9036 10.4824 26.7679 10.2788L22.0402 1.72826H22.0176C21.9723 1.72826 21.9045 1.72826 21.8592 1.72826L16.9732 1.34371L23.0581 12.3373C23.1712 12.5409 23.1034 12.8124 22.8772 12.9481L20.8865 14.0565Z" fill="#00386C"/>
<path fill-rule="evenodd" clip-rule="evenodd" d="M20.0042 28.5788C19.7553 28.5788 19.5518 28.3752 19.5518 28.1264C19.5518 27.9228 19.5518 27.7418 19.5518 27.5608C19.5291 25.9548 19.5291 24.5523 19.9363 23.2403C20.3209 22.0188 21.0447 20.9556 22.1984 19.9377C22.3793 19.7567 22.6508 19.7793 22.8317 19.9603C22.9901 20.1639 22.9675 20.4353 22.7865 20.6163C21.7686 21.5211 21.1352 22.4486 20.7959 23.5117C20.434 24.688 20.434 25.9548 20.4566 27.5608V28.1264C20.4566 28.3752 20.253 28.5788 20.0042 28.5788Z" fill="#00386C"/>
<path fill-rule="evenodd" clip-rule="evenodd" d="M17.7422 25.2988C16.3397 25.2988 15.9099 24.2583 15.548 23.3535C15.2313 22.6296 14.9372 21.8831 14.1681 21.4533C14.0098 21.3402 13.9193 21.1366 13.9645 20.9557C14.0098 20.7521 14.1681 20.6164 14.3717 20.5938H14.9146C16.0682 20.5938 18.1267 20.7747 19.0542 22.0641C19.5744 22.7653 19.6423 23.6928 19.2578 24.8012C19.2125 24.9369 19.0994 25.05 18.9637 25.0953C18.4887 25.231 18.1041 25.2988 17.7422 25.2988ZM15.5932 21.5212C15.9551 21.9962 16.1813 22.5391 16.3849 22.9915C16.7695 23.9416 16.9957 24.394 17.7422 24.394C17.9458 24.394 18.1946 24.3488 18.466 24.2809C18.6696 23.5797 18.6244 23.0142 18.3077 22.5844C17.7648 21.8153 16.498 21.5891 15.5932 21.5212Z" fill="#00386C"/>
<path fill-rule="evenodd" clip-rule="evenodd" d="M21.9723 24.0773C21.4747 24.0773 20.9092 23.9642 20.2532 23.7833C20.1175 23.738 20.0044 23.6249 19.9591 23.4892C19.4162 21.9284 19.5067 20.639 20.2306 19.6663C21.5199 17.8567 24.4606 17.5852 26.1119 17.5852C26.587 17.5852 26.9036 17.6078 26.9036 17.6078C27.1072 17.6304 27.2656 17.7662 27.3108 17.9698C27.3561 18.1507 27.2656 18.3543 27.1072 18.4448C25.931 19.1234 25.4785 20.2544 25.0261 21.3402C24.4606 22.6748 23.8725 24.0773 21.9723 24.0773ZM20.7282 22.9689C21.2032 23.1046 21.633 23.1725 21.9723 23.1725C23.2165 23.1725 23.601 22.3808 24.1892 21.0009C24.5285 20.164 24.913 19.2591 25.6143 18.49C24.257 18.5579 21.9271 18.852 20.9544 20.1866C20.4568 20.8878 20.3889 21.8153 20.7282 22.9689Z" fill="#00386C"/>
<path fill-rule="evenodd" clip-rule="evenodd" d="M20.0043 26.4297C19.8686 26.4297 19.7555 26.3845 19.665 26.294L18.4887 24.9594C18.3304 24.7558 18.353 24.4844 18.5339 24.3034C18.7149 24.1451 19.009 24.1677 19.1673 24.3486L20.3436 25.6833C20.5019 25.8868 20.5019 26.1583 20.2984 26.3166C20.2079 26.4071 20.1174 26.4297 20.0043 26.4297Z" fill="#00386C"/>
</g>
<defs>
<clipPath id="clip0_715_286">
<rect width="38.6134" height="38.6134" fill="white" transform="translate(0.957764 0.0090332)"/>
</clipPath>
</defs>
</svg>
