<svg width="39" height="39" viewBox="0 0 39 39" fill="none" xmlns="http://www.w3.org/2000/svg">
<path d="M14.181 23.3082C13.6933 23.5887 13.4908 24.1714 13.6993 24.6938C13.926 25.2617 14.2339 25.7939 14.6146 26.2758C14.9626 26.7163 15.5681 26.8319 16.0539 26.5507C16.3991 26.3509 16.8275 26.3506 17.1724 26.5496C17.5173 26.7487 17.7312 27.1202 17.7306 27.5192C17.7298 28.082 18.1335 28.5487 18.6905 28.6289C18.9906 28.6721 19.2977 28.6941 19.6029 28.6941C19.9079 28.6941 20.2149 28.6721 20.5153 28.6289C21.0722 28.5486 21.4759 28.0819 21.4752 27.5191C21.4746 27.1202 21.6885 26.7487 22.0335 26.5496C22.3783 26.3506 22.8069 26.3509 23.152 26.5508C23.6379 26.8319 24.2432 26.7163 24.5912 26.2759C24.9719 25.7942 25.2799 25.2619 25.5066 24.6938C25.7152 24.1714 25.5126 23.5886 25.0249 23.3082C24.6789 23.1093 24.464 22.7382 24.464 22.3398C24.464 21.9414 24.6789 21.5702 25.025 21.3714C25.5126 21.0909 25.7152 20.5081 25.5066 19.9857C25.28 19.4178 24.972 18.8855 24.5912 18.4037C24.2431 17.9632 23.6378 17.8477 23.152 18.1289C22.8069 18.3286 22.3783 18.329 22.0336 18.1299C21.6886 17.9308 21.4746 17.5593 21.4752 17.1604C21.4761 16.5975 21.0724 16.1309 20.5153 16.0506C19.9155 15.9642 19.2915 15.964 18.6906 16.0506C18.1336 16.1309 17.7299 16.5975 17.7306 17.1604C17.7312 17.5593 17.5173 17.9308 17.1724 18.1299C16.8276 18.329 16.399 18.3285 16.0539 18.1288C15.568 17.8476 14.9626 17.9632 14.6146 18.4036C14.2339 18.8855 13.9259 19.4177 13.6993 19.9856C13.4907 20.5081 13.6934 21.0909 14.181 21.3713C14.5269 21.5702 14.7419 21.9413 14.7419 22.3397C14.7419 22.7381 14.5269 23.1093 14.181 23.3082ZM14.557 23.962C15.1362 23.629 15.496 23.0074 15.496 22.3398C15.496 21.6722 15.1362 21.0506 14.557 20.7176C14.3978 20.6261 14.3317 20.4358 14.3998 20.2653C14.5994 19.765 14.8708 19.296 15.2064 18.8714C15.32 18.7276 15.5177 18.6899 15.6762 18.7817C16.254 19.1162 16.9718 19.1168 17.5496 18.7832C18.1275 18.4496 18.4859 17.8274 18.4849 17.1595C18.4847 16.9758 18.6164 16.8234 18.7982 16.7972C19.328 16.7209 19.8789 16.721 20.4078 16.7972C20.5896 16.8234 20.7214 16.9758 20.7211 17.1595C20.7201 17.8274 21.0785 18.4496 21.6565 18.7833C22.2342 19.1168 22.952 19.1162 23.5298 18.7818C23.6883 18.6901 23.8859 18.7277 23.9996 18.8714C24.3352 19.2961 24.6066 19.7652 24.8063 20.2654C24.8744 20.436 24.8082 20.6262 24.6491 20.7177C24.0698 21.0508 23.7099 21.6723 23.7099 22.3399C23.7099 23.0075 24.0697 23.6291 24.649 23.9621C24.8082 24.0536 24.8743 24.2439 24.8062 24.4144C24.6065 24.9148 24.335 25.3838 23.9996 25.8084C23.8859 25.9522 23.6883 25.9898 23.5298 25.8981C22.952 25.5635 22.2342 25.5631 21.6565 25.8966C21.0786 26.2302 20.7202 26.8523 20.7211 27.5203C20.7214 27.704 20.5896 27.8564 20.4079 27.8825C19.8781 27.9588 19.3274 27.9588 18.7982 27.8825C18.6164 27.8564 18.4847 27.704 18.485 27.5203C18.4859 26.8523 18.1275 26.2302 17.5496 25.8965C17.2612 25.73 16.9379 25.6467 16.6145 25.6467C16.2901 25.6467 15.9656 25.7304 15.6763 25.8979C15.5176 25.9897 15.3202 25.952 15.2065 25.8083C14.871 25.3836 14.5996 24.9146 14.3999 24.4143C14.3316 24.2438 14.3977 24.0536 14.557 23.962ZM19.6029 24.7513C20.9326 24.7513 22.0145 23.6695 22.0145 22.3398C22.0145 21.01 20.9327 19.9282 19.6029 19.9282C18.2732 19.9282 17.1913 21.01 17.1913 22.3397C17.1913 23.6695 18.2732 24.7513 19.6029 24.7513ZM19.6029 20.6823C20.5168 20.6823 21.2604 21.4258 21.2604 22.3398C21.2604 23.2537 20.5168 23.9971 19.6029 23.9971C18.689 23.9971 17.9455 23.2537 17.9455 22.3397C17.9456 21.4259 18.689 20.6823 19.6029 20.6823ZM26.769 8.80533C26.8828 8.63089 27.1163 8.58157 27.2908 8.6953C29.188 9.93153 30.8108 11.6088 31.9836 13.5458C33.0215 15.2599 33.7158 17.192 34.0116 19.1759L34.6914 18.4977C34.8387 18.3505 35.0775 18.3509 35.2246 18.4983C35.3717 18.6457 35.3715 18.8844 35.224 19.0315L33.9994 20.2534C33.9396 20.3139 33.8591 20.3546 33.7678 20.3635C33.7676 20.3635 33.7675 20.3635 33.7673 20.3635C33.767 20.3635 33.7667 20.3635 33.7664 20.3636C33.766 20.3636 33.7656 20.3636 33.7653 20.3636C33.7649 20.3637 33.7646 20.3637 33.7642 20.3637C33.7638 20.3638 33.7635 20.3637 33.763 20.3638C33.7627 20.3638 33.7627 20.3639 33.7619 20.3639C33.7515 20.3647 33.7412 20.3651 33.7309 20.3651C33.6589 20.3651 33.5909 20.3446 33.5329 20.3087L32.0711 19.4276C31.8928 19.32 31.8354 19.0883 31.9429 18.91C32.0504 18.7315 32.2822 18.6742 32.4604 18.7817L33.2633 19.2656C32.6568 15.1868 30.36 11.5951 26.8791 9.32691C26.7046 9.21341 26.6553 8.97977 26.769 8.80533ZM26.0416 34.4136C26.1359 34.5993 26.0618 34.8263 25.8761 34.9206C23.8569 35.9455 21.593 36.5122 19.329 36.5594C17.3246 36.6013 15.3052 36.2365 13.4391 35.5007L13.6866 36.4285C13.7403 36.6297 13.6207 36.8363 13.4195 36.89C13.3869 36.8987 13.3543 36.9028 13.3221 36.9028C13.1555 36.9028 13.003 36.7915 12.958 36.6229L12.5122 34.9518C12.4902 34.8722 12.4942 34.7851 12.5291 34.7036C12.5291 34.7035 12.5292 34.7033 12.5293 34.7031C12.5322 34.6965 12.5351 34.69 12.5383 34.6837C12.5742 34.6115 12.6305 34.5556 12.6969 34.52L14.1913 33.6943C14.3736 33.5936 14.603 33.6598 14.7037 33.842C14.8044 34.0243 14.7383 34.2537 14.5561 34.3544L13.7354 34.8077C17.5711 36.3219 21.83 36.1287 25.5348 34.2481C25.7204 34.1538 25.9474 34.228 26.0416 34.4136ZM3.87168 20.5826C3.99363 18.3215 4.63482 16.0775 5.72588 14.0933C6.69136 12.3375 8.01749 10.7701 9.58767 9.52194L8.66057 9.27239C8.45943 9.21824 8.34027 9.01137 8.39442 8.81031C8.44857 8.60917 8.65544 8.48994 8.8565 8.54416L10.5266 8.99365C10.6092 9.01514 10.685 9.06469 10.7385 9.13965C10.7881 9.20934 10.8107 9.29011 10.8083 9.36952L10.7761 11.0765C10.7722 11.2847 10.6002 11.4491 10.392 11.4464C10.1838 11.4425 10.0181 11.2705 10.0221 11.0623L10.0397 10.1251C6.81052 12.6897 4.84855 16.4746 4.62471 20.6234C4.61385 20.8244 4.44741 20.9801 4.24854 20.9801C4.24167 20.9801 4.23481 20.9799 4.22787 20.9796C4.01995 20.9683 3.86044 20.7906 3.87168 20.5826ZM14.3644 13.5046H24.8415C25.0497 13.5046 25.2186 13.3358 25.2186 13.1275C25.2186 10.6042 23.5454 8.4646 21.2503 7.75892C22.0271 7.23025 22.5383 6.3392 22.5383 5.3308C22.5383 3.71228 21.2215 2.39551 19.603 2.39551C17.9845 2.39551 16.6677 3.71228 16.6677 5.3308C16.6677 6.3392 17.179 7.23025 17.9557 7.75892C15.6606 8.4646 13.9874 10.6042 13.9874 13.1275C13.9873 13.3358 14.1562 13.5046 14.3644 13.5046ZM17.4218 5.3308C17.4218 4.12813 18.4003 3.14968 19.6029 3.14968C20.8056 3.14968 21.7841 4.12813 21.7841 5.3308C21.7841 6.53325 20.806 7.51156 19.6036 7.51193C19.6034 7.51193 19.6032 7.51193 19.6029 7.51193C19.6026 7.51193 19.6024 7.51193 19.6021 7.51193C18.3999 7.51156 17.4218 6.53325 17.4218 5.3308ZM19.6022 8.2661H19.6029C19.6029 8.2661 19.6035 8.2661 19.6037 8.2661C22.1572 8.26648 24.257 10.2455 24.4499 12.7505H14.756C14.9489 10.2456 17.0487 8.26655 19.6022 8.2661ZM13.4884 32.54C13.4884 30.0166 11.8152 27.877 9.52009 27.1714C10.2969 26.6427 10.8081 25.7516 10.8081 24.7432C10.8081 23.1247 9.49128 21.8079 7.87277 21.8079C6.25425 21.8079 4.93747 23.1247 4.93747 24.7432C4.93747 25.7516 5.44872 26.6427 6.22544 27.1714C3.93035 27.877 2.25708 30.0166 2.25708 32.54C2.25708 32.7482 2.42594 32.9171 2.63416 32.9171H13.1112C13.3195 32.9171 13.4884 32.7483 13.4884 32.54ZM5.69156 24.7433C5.69156 23.5406 6.67002 22.5622 7.87269 22.5622C9.07536 22.5622 10.0538 23.5406 10.0538 24.7433C10.0538 25.946 9.07536 26.9244 7.87269 26.9244C6.67002 26.9244 5.69156 25.946 5.69156 24.7433ZM3.02573 32.1629C3.21872 29.6577 5.31885 27.6785 7.87269 27.6785C10.4265 27.6785 12.5267 29.6577 12.7197 32.1629H3.02573ZM32.9805 27.1714C33.7573 26.6428 34.2685 25.7517 34.2685 24.7433C34.2685 23.1248 32.9517 21.808 31.3332 21.808C29.7147 21.808 28.3979 23.1248 28.3979 24.7433C28.3979 25.7517 28.9091 26.6428 29.6859 27.1714C27.3908 27.8771 25.7176 30.0167 25.7176 32.5401C25.7176 32.7483 25.8864 32.9171 26.0947 32.9171H36.5717C36.7799 32.9171 36.9488 32.7483 36.9488 32.5401C36.9488 30.0166 35.2755 27.877 32.9805 27.1714ZM29.1521 24.7433C29.1521 23.5406 30.1305 22.5622 31.3332 22.5622C32.5359 22.5622 33.5143 23.5406 33.5143 24.7433C33.5143 25.946 32.5359 26.9244 31.3332 26.9244C30.1305 26.9244 29.1521 25.946 29.1521 24.7433ZM26.4862 32.1629C26.6792 29.6577 28.7794 27.6785 31.3332 27.6785C33.887 27.6785 35.9872 29.6577 36.1802 32.1629H26.4862Z" fill="#00386C"/>
</svg>
