<svg width="39" height="39" viewBox="0 0 39 39" fill="none" xmlns="http://www.w3.org/2000/svg">
<g clip-path="url(#clip0_715_167)">
<path d="M24.1713 31.4367H15.0247C14.4334 31.4367 13.993 30.9661 13.993 30.3447V30.0792C13.993 27.8227 13.0578 25.6206 11.3625 23.8709C9.14824 21.5843 8.0019 18.5676 8.14067 15.382C8.39407 9.51154 13.1906 4.70297 19.055 4.4375C22.2346 4.2927 25.2271 5.4149 27.5137 7.59897C29.8004 9.78304 31.0613 12.7333 31.0613 15.8948C31.0613 18.9417 29.8788 21.8075 27.737 23.9674C26.1019 25.6145 25.1969 27.7141 25.1969 29.8741V30.411C25.203 30.9721 24.7384 31.4367 24.1713 31.4367ZM19.604 5.01067C19.4291 5.01067 19.2601 5.0167 19.0852 5.02273C13.5224 5.27613 8.9793 9.83734 8.73797 15.4001C8.60523 18.4228 9.69124 21.2826 11.7969 23.4546C13.6008 25.3129 14.5903 27.6659 14.5903 30.0732V30.3386C14.5903 30.6282 14.7773 30.8394 15.0307 30.8394H24.1773C24.4186 30.8394 24.6177 30.6403 24.6177 30.399V29.862C24.6177 27.5452 25.5831 25.3008 27.3267 23.5391C29.3599 21.4877 30.4821 18.7667 30.4821 15.8828C30.4821 12.8842 29.2875 10.0907 27.1155 8.01527C25.0642 6.07254 22.4156 5.01067 19.604 5.01067Z" fill="#00386C"/>
<path d="M23.2964 33.3492H15.8995C15.1635 33.3492 14.5662 32.7881 14.5662 32.0943C14.5662 31.4065 15.1635 30.8394 15.8995 30.8394C16.0624 30.8394 16.1952 30.9721 16.1952 31.135C16.1952 31.2979 16.0624 31.4306 15.8995 31.4306C15.4953 31.4306 15.1574 31.7263 15.1574 32.0883C15.1574 32.4503 15.4893 32.7459 15.8995 32.7459H23.2964C23.7067 32.7459 24.0385 32.4503 24.0385 32.0883C24.0385 31.7263 23.7067 31.4306 23.2964 31.4306C23.1335 31.4306 23.0008 31.2979 23.0008 31.135C23.0008 30.9721 23.1335 30.8394 23.2964 30.8394C24.0325 30.8394 24.6298 31.4005 24.6298 32.0943C24.6298 32.7881 24.0325 33.3492 23.2964 33.3492Z" fill="#00386C"/>
<path d="M23.2964 35.2557H15.8995C15.1635 35.2557 14.5662 34.6946 14.5662 34.0008C14.5662 33.313 15.1635 32.7458 15.8995 32.7458C16.0624 32.7458 16.1952 32.8786 16.1952 33.0415C16.1952 33.2044 16.0624 33.3371 15.8995 33.3371C15.4953 33.3371 15.1574 33.6328 15.1574 33.9948C15.1574 34.3568 15.4893 34.6524 15.8995 34.6524H23.2964C23.7067 34.6524 24.0385 34.3568 24.0385 33.9948C24.0385 33.6328 23.7067 33.3371 23.2964 33.3371C23.1335 33.3371 23.0008 33.2044 23.0008 33.0415C23.0008 32.8786 23.1335 32.7458 23.2964 32.7458C24.0325 32.7458 24.6298 33.307 24.6298 34.0008C24.6298 34.6946 24.0325 35.2557 23.2964 35.2557Z" fill="#00386C"/>
<path d="M23.1155 37.0356H16.0807C15.4291 37.0356 14.8921 36.5047 14.8921 35.847C14.8921 35.1954 15.423 34.6584 16.0807 34.6584H23.1155C23.7671 34.6584 24.3041 35.1894 24.3041 35.847C24.3041 36.5047 23.7732 37.0356 23.1155 37.0356ZM16.0807 35.2557C15.7549 35.2557 15.4894 35.5212 15.4894 35.847C15.4894 36.1728 15.7549 36.4383 16.0807 36.4383H23.1155C23.4413 36.4383 23.7068 36.1728 23.7068 35.847C23.7068 35.5212 23.4413 35.2557 23.1155 35.2557H16.0807Z" fill="#00386C"/>
<path d="M20.1832 38.6224H19.0188C17.9087 38.6224 17.0037 37.7777 17.0037 36.74C17.0037 36.5771 17.1364 36.4443 17.2993 36.4443C17.4622 36.4443 17.5949 36.5771 17.5949 36.74C17.5949 37.4519 18.2345 38.0251 19.0188 38.0251H20.1832C20.9676 38.0251 21.6071 37.4459 21.6071 36.74C21.6071 36.5771 21.7398 36.4443 21.9027 36.4443C22.0656 36.4443 22.1984 36.5771 22.1984 36.74C22.1984 37.7777 21.2934 38.6224 20.1832 38.6224Z" fill="#00386C"/>
<path d="M22.4216 31.4366C22.2587 31.4366 22.126 31.3039 22.126 31.141V28.5889C22.126 28.1304 21.8303 27.7623 21.4683 27.7623H17.7277C17.3657 27.7623 17.07 28.1364 17.07 28.5889V31.141C17.07 31.3039 16.9373 31.4366 16.7744 31.4366C16.6115 31.4366 16.4788 31.3039 16.4788 31.141V28.5889C16.4788 27.8046 17.0399 27.165 17.7337 27.165H21.4744C22.1622 27.165 22.7293 27.8046 22.7293 28.5889V31.141C22.7233 31.3039 22.5905 31.4366 22.4216 31.4366Z" fill="#00386C"/>
<path d="M20.9979 11.762C20.8954 11.762 20.7988 11.7077 20.7445 11.6233C20.6902 11.5388 20.6842 11.4302 20.7264 11.3337C21.0583 10.6519 21.8064 10.2658 22.5485 10.3985C22.7114 10.4287 22.82 10.5795 22.7899 10.7424C22.7597 10.9053 22.6028 11.0079 22.446 10.9837C21.9753 10.8993 21.4987 11.1346 21.2815 11.5629C21.2332 11.6836 21.1246 11.762 20.9979 11.762Z" fill="#00386C"/>
<path d="M24.612 10.4831C24.5516 10.4831 24.4913 10.465 24.437 10.4227C24.3043 10.3262 24.2741 10.1392 24.3706 10.0064C24.5034 9.82543 24.5758 9.6022 24.5758 9.37293C24.5758 8.7696 24.0871 8.27486 23.4777 8.27486C23.2363 8.27486 22.995 8.35329 22.814 8.50413C22.6873 8.6067 22.5003 8.58256 22.3977 8.45586C22.2951 8.32916 22.3193 8.14213 22.446 8.03956C22.7356 7.81029 23.1036 7.68359 23.4777 7.68359C24.4068 7.68359 25.167 8.44379 25.167 9.37896C25.167 9.73493 25.0524 10.0849 24.8473 10.3684C24.793 10.4408 24.7025 10.4831 24.612 10.4831Z" fill="#00386C"/>
<path d="M26.3435 14.5555C26.2591 14.5555 26.1746 14.5193 26.1143 14.4469C26.0117 14.3202 26.0298 14.1331 26.1505 14.0306C26.615 13.6444 26.8805 13.0833 26.8805 12.48C26.8805 11.3699 25.9815 10.4709 24.8714 10.4709C24.5275 10.4709 24.1896 10.5554 23.894 10.7243C23.7492 10.8027 23.5682 10.7545 23.4898 10.6097C23.4113 10.4649 23.4596 10.2839 23.6044 10.2054C23.9905 9.98824 24.4249 9.87964 24.8714 9.87964C26.3073 9.87964 27.4778 11.0501 27.4778 12.486C27.4778 13.2643 27.1339 13.9944 26.5366 14.4951C26.4763 14.5313 26.4099 14.5555 26.3435 14.5555Z" fill="#00386C"/>
<path d="M24.0207 12.8962C23.164 12.8962 22.3917 12.2989 22.2047 11.4362C22.0599 10.7785 22.2891 10.0907 22.7899 9.64427C22.9106 9.53567 23.1036 9.54773 23.2122 9.6684C23.3208 9.78907 23.3088 9.9761 23.1881 10.0847C22.8442 10.3864 22.6934 10.857 22.7899 11.3034C22.9407 11.9852 23.6104 12.4196 24.2922 12.2688C24.5758 12.2084 24.8352 12.0455 25.0162 11.8163C25.1188 11.6896 25.3058 11.6654 25.4325 11.768C25.5592 11.8706 25.5833 12.0576 25.4808 12.1843C25.2153 12.5222 24.8352 12.7635 24.4129 12.854C24.2862 12.8781 24.1534 12.8962 24.0207 12.8962Z" fill="#00386C"/>
<path d="M26.0841 15.8948C25.885 15.8948 25.6798 15.8526 25.4868 15.7681C25.1006 15.6052 24.7929 15.2975 24.618 14.9053C24.5757 14.8028 24.5395 14.7002 24.5154 14.5976C24.4792 14.4408 24.5757 14.2779 24.7386 14.2417C24.9015 14.2055 25.0584 14.308 25.0946 14.4649C25.1127 14.5313 25.1308 14.5976 25.161 14.664C25.2756 14.9174 25.4687 15.1165 25.716 15.2191C25.9513 15.3216 26.2108 15.3216 26.434 15.2191C26.4823 15.1949 26.5245 15.1708 26.5667 15.1467C26.7055 15.0562 26.8865 15.0863 26.977 15.2251C27.0675 15.3578 27.0373 15.5449 26.8986 15.6354C26.8262 15.6836 26.7477 15.7259 26.6693 15.7621C26.4883 15.8465 26.2832 15.8948 26.0841 15.8948Z" fill="#00386C"/>
<path d="M23.8034 16.8965C23.7974 16.8965 23.7974 16.8965 23.7913 16.8965C23.6284 16.8905 23.5017 16.7517 23.5078 16.5888C23.5138 16.4922 23.5198 16.3957 23.544 16.2992C23.7008 15.545 24.3524 14.996 25.173 14.9356C25.3298 14.9236 25.4807 15.0442 25.4927 15.2071C25.5048 15.37 25.3841 15.5148 25.2212 15.5269C24.6722 15.5691 24.2318 15.9311 24.1292 16.4259C24.1171 16.4922 24.1111 16.5586 24.1051 16.619C24.099 16.7758 23.9663 16.8965 23.8034 16.8965Z" fill="#00386C"/>
<path d="M21.4865 18.6944C21.4805 18.6944 21.4805 18.6944 21.4744 18.6944C21.3115 18.6884 21.1848 18.5496 21.1909 18.3867C21.1969 18.2902 21.2029 18.1936 21.2271 18.0971C21.3477 17.4877 21.8183 16.993 22.4519 16.806C22.6087 16.7577 22.7716 16.8482 22.8199 17.0051C22.8682 17.1619 22.7777 17.3248 22.6208 17.3731C22.1984 17.4938 21.8907 17.8196 21.8123 18.2178C21.7942 18.2902 21.7942 18.3505 21.7882 18.4108C21.7761 18.5737 21.6434 18.6944 21.4865 18.6944Z" fill="#00386C"/>
<path d="M26.4099 17.1981C26.2651 17.1981 26.1444 17.0955 26.1203 16.9507C26.0901 16.7878 26.2048 16.637 26.3616 16.6068C27.1098 16.4801 27.6528 15.8346 27.6528 15.0744C27.6528 14.4952 27.339 13.9703 26.8262 13.6988C26.6814 13.6203 26.6271 13.4393 26.7055 13.2945C26.784 13.1497 26.965 13.0954 27.1098 13.1739C27.8097 13.5479 28.2501 14.278 28.2501 15.0744C28.2501 16.1242 27.4959 17.0171 26.4642 17.1921C26.4461 17.1921 26.428 17.1981 26.4099 17.1981Z" fill="#00386C"/>
<path d="M25.4144 19.2313C24.624 19.2313 23.8578 18.9598 23.2364 18.459C22.1202 17.554 21.6677 16.0336 22.1202 14.6701C22.1685 14.5132 22.3374 14.4287 22.4943 14.483C22.6511 14.5373 22.7356 14.7002 22.6813 14.8571C22.3072 15.9914 22.6813 17.2523 23.6044 18.0005C24.1595 18.4469 24.8473 18.6762 25.5592 18.64C25.7402 18.634 25.8609 18.7607 25.8729 18.9236C25.879 19.0865 25.7583 19.2252 25.5894 19.2373C25.5351 19.2313 25.4747 19.2313 25.4144 19.2313Z" fill="#00386C"/>
<path d="M26.1201 21.1559C25.9874 21.1559 25.8727 21.0714 25.8365 20.9387C25.7943 20.7818 25.8848 20.6189 26.0417 20.5706C26.9889 20.3052 27.6526 19.4303 27.6526 18.4409C27.6526 17.8255 27.3931 17.2342 26.9406 16.8179C26.82 16.7093 26.8139 16.5162 26.9225 16.3956C27.0311 16.2749 27.2242 16.2689 27.3449 16.3775C27.918 16.9084 28.2499 17.6565 28.2499 18.4409C28.2499 19.6958 27.4052 20.8059 26.2046 21.1378C26.1744 21.1498 26.1503 21.1559 26.1201 21.1559Z" fill="#00386C"/>
<path d="M23.8335 22.3507C23.749 22.3507 23.6706 22.3446 23.5861 22.3326C22.3372 22.1697 21.4564 21.0233 21.6193 19.7805C21.6555 19.515 21.7339 19.2556 21.8546 19.0263C21.933 18.8815 22.108 18.8272 22.2528 18.8996C22.3976 18.978 22.4519 19.153 22.3795 19.2978C22.289 19.4728 22.2286 19.6598 22.2045 19.8589C22.0838 20.782 22.7354 21.6267 23.6585 21.7473C23.7309 21.7534 23.8033 21.7594 23.8697 21.7594C24.0507 21.7473 24.1714 21.8801 24.1774 22.043C24.1834 22.2059 24.0567 22.3446 23.8938 22.3507C23.8757 22.3507 23.8516 22.3507 23.8335 22.3507Z" fill="#00386C"/>
<path d="M24.4368 24.1727C24.105 24.1727 23.7852 24.1003 23.4836 23.9615C23.3327 23.8951 23.2724 23.7141 23.3388 23.5693C23.4051 23.4185 23.5861 23.3582 23.7309 23.4245C23.9542 23.5271 24.1895 23.5814 24.4368 23.5814C25.366 23.5814 26.1201 22.8272 26.1201 21.8981C26.1201 21.1922 25.6797 20.5587 25.016 20.3174C24.8592 20.2631 24.7807 20.0881 24.8411 19.9373C24.8954 19.7864 25.0643 19.702 25.2212 19.7623C26.1141 20.0881 26.7174 20.9448 26.7174 21.9041C26.7114 23.153 25.6918 24.1727 24.4368 24.1727Z" fill="#00386C"/>
<path d="M21.9754 25.6085C20.9135 25.6085 20.0508 24.7458 20.0508 23.6839V8.31697C20.0508 7.52057 20.6963 6.875 21.4928 6.875C22.2892 6.875 22.9347 7.52057 22.9347 8.31697C22.9347 8.62467 22.8382 8.9203 22.6572 9.16767C22.5607 9.3004 22.3736 9.33057 22.2409 9.23404C22.1082 9.1375 22.078 8.95047 22.1745 8.81774C22.2831 8.67294 22.3374 8.49797 22.3374 8.31697C22.3374 7.8524 21.9573 7.4723 21.4928 7.4723C21.0282 7.4723 20.6481 7.8524 20.6481 8.31697V23.6839C20.6481 24.42 21.2454 25.0173 21.9815 25.0173C22.7175 25.0173 23.3148 24.42 23.3148 23.6839C23.3148 23.4184 23.2364 23.159 23.0856 22.9418C22.9951 22.803 23.0313 22.622 23.164 22.5315C23.2967 22.441 23.4838 22.4772 23.5743 22.61C23.7915 22.9297 23.9061 23.3038 23.9061 23.6899C23.9061 24.7458 23.0373 25.6085 21.9754 25.6085Z" fill="#00386C"/>
<path d="M14.5845 10.483C14.494 10.483 14.4035 10.4408 14.3432 10.3623C14.1381 10.0788 14.0234 9.72883 14.0234 9.37286C14.0234 8.43769 14.7836 7.67749 15.7128 7.67749C16.0929 7.67749 16.4549 7.80419 16.7505 8.03346C16.8772 8.13602 16.9013 8.32306 16.7988 8.44976C16.6962 8.57646 16.5092 8.60059 16.3825 8.49802C16.1954 8.35322 15.9601 8.26876 15.7128 8.26876C15.1094 8.26876 14.6147 8.76349 14.6147 9.36683C14.6147 9.59609 14.6871 9.82536 14.8198 10.0003C14.9164 10.1331 14.8862 10.3201 14.7535 10.4166C14.7052 10.4649 14.6449 10.483 14.5845 10.483Z" fill="#00386C"/>
<path d="M12.8528 14.5554C12.7865 14.5554 12.7201 14.5313 12.6658 14.489C12.0685 13.9943 11.7246 13.2582 11.7246 12.4799C11.7246 11.044 12.8951 9.87354 14.331 9.87354C14.7775 9.87354 15.2119 9.98817 15.598 10.1993C15.7428 10.2778 15.7911 10.4588 15.7126 10.6036C15.6342 10.7484 15.4532 10.7966 15.3084 10.7182C15.0128 10.5553 14.6749 10.4648 14.331 10.4648C13.2209 10.4648 12.3219 11.3638 12.3219 12.4739C12.3219 13.0772 12.5874 13.6383 13.0519 14.0245C13.1786 14.127 13.1967 14.3141 13.0881 14.4408C13.0218 14.5132 12.9373 14.5554 12.8528 14.5554Z" fill="#00386C"/>
<path d="M18.1986 11.7619C18.0719 11.7619 17.9633 11.6835 17.9211 11.5688C17.6978 11.1405 17.2272 10.9052 16.7566 10.9896C16.5998 11.0198 16.4429 10.9112 16.4127 10.7483C16.3826 10.5854 16.4912 10.4346 16.6541 10.4044C17.3962 10.2717 18.1443 10.6518 18.4762 11.3396C18.5184 11.4301 18.5124 11.5387 18.4581 11.6292C18.3977 11.7076 18.3012 11.7619 18.1986 11.7619Z" fill="#00386C"/>
<path d="M15.1758 12.8962C15.0431 12.8962 14.9104 12.8842 14.7776 12.854C14.3553 12.7635 13.9752 12.5222 13.7097 12.1843C13.6072 12.0576 13.6313 11.8706 13.758 11.768C13.8847 11.6654 14.0717 11.6896 14.1743 11.8163C14.3553 12.0455 14.6147 12.2084 14.8983 12.2688C15.2301 12.3412 15.568 12.2808 15.8516 12.0998C16.1351 11.9188 16.3282 11.6353 16.4006 11.3034C16.4971 10.857 16.3463 10.3864 16.0024 10.0847C15.8817 9.9761 15.8697 9.78907 15.9783 9.6684C16.0869 9.54773 16.2739 9.53567 16.4006 9.64427C16.9074 10.0907 17.1306 10.7785 16.9858 11.4362C16.8833 11.9188 16.5937 12.3351 16.1774 12.6066C15.8757 12.7937 15.5318 12.8962 15.1758 12.8962Z" fill="#00386C"/>
<path d="M13.1123 15.8949C12.9071 15.8949 12.708 15.8526 12.521 15.7682C12.4425 15.732 12.3641 15.6897 12.2917 15.6415C12.159 15.551 12.1228 15.3639 12.2133 15.2312C12.3038 15.0985 12.4908 15.0623 12.6236 15.1528C12.6658 15.1829 12.708 15.2071 12.7563 15.2252C12.9795 15.3277 13.2329 15.3217 13.4743 15.2252C13.7216 15.1226 13.9147 14.9235 14.0293 14.6701C14.0595 14.6037 14.0776 14.5374 14.0957 14.471C14.1319 14.3141 14.2888 14.2116 14.4517 14.2478C14.6085 14.284 14.7111 14.4469 14.6749 14.6037C14.6508 14.7063 14.6206 14.8089 14.5723 14.9114C14.3974 15.3036 14.0897 15.6113 13.7035 15.7742C13.5165 15.8526 13.3114 15.8949 13.1123 15.8949Z" fill="#00386C"/>
<path d="M15.3869 16.8964C15.2301 16.8964 15.0973 16.7697 15.0913 16.6128C15.0913 16.5465 15.0853 16.4861 15.0672 16.4258C14.9646 15.925 14.5242 15.563 13.9751 15.5208C13.8122 15.5087 13.6855 15.3639 13.7036 15.201C13.7157 15.0381 13.8545 14.9175 14.0234 14.9295C14.8439 14.9899 15.4955 15.5389 15.6524 16.2991C15.6705 16.3956 15.6826 16.4861 15.6886 16.5887C15.6946 16.7516 15.5679 16.8904 15.405 16.8964C15.399 16.8964 15.393 16.8964 15.3869 16.8964Z" fill="#00386C"/>
<path d="M17.7097 18.6944C17.5529 18.6944 17.4201 18.5677 17.4141 18.4108C17.4141 18.3445 17.4081 18.2841 17.39 18.2238C17.3115 17.8196 16.9978 17.4998 16.5815 17.3731C16.4246 17.3248 16.3341 17.1619 16.3824 17.0051C16.4307 16.8482 16.5936 16.7577 16.7504 16.806C17.3839 16.993 17.8545 17.4877 17.9752 18.1031C17.9933 18.1936 18.0054 18.2902 18.0114 18.3927C18.0174 18.5556 17.8907 18.6944 17.7278 18.7004C17.7218 18.6944 17.7158 18.6944 17.7097 18.6944Z" fill="#00386C"/>
<path d="M12.7865 17.1981C12.7684 17.1981 12.7503 17.1981 12.7383 17.1921C11.7005 17.0171 10.9524 16.1242 10.9524 15.0744C10.9524 14.278 11.3868 13.5479 12.0927 13.1739C12.2375 13.0954 12.4185 13.1497 12.4969 13.2945C12.5754 13.4393 12.5211 13.6203 12.3763 13.6988C11.8695 13.9703 11.5497 14.4952 11.5497 15.0744C11.5497 15.8346 12.0927 16.4801 12.8408 16.6068C13.0037 16.637 13.1123 16.7878 13.0822 16.9507C13.052 17.0955 12.9253 17.1981 12.7865 17.1981Z" fill="#00386C"/>
<path d="M13.782 19.2314C13.7216 19.2314 13.6613 19.2314 13.607 19.2253C13.4441 19.2193 13.3174 19.0745 13.3234 18.9116C13.3295 18.7487 13.4622 18.622 13.6372 18.628C14.3491 18.6703 15.0369 18.435 15.592 17.9885C16.5211 17.2404 16.8892 15.9794 16.5151 14.8451C16.4608 14.6883 16.5453 14.5193 16.7021 14.4711C16.859 14.4168 17.0279 14.5012 17.0762 14.6581C17.5287 16.0216 17.0762 17.5481 15.96 18.447C15.3446 18.9599 14.5724 19.2314 13.782 19.2314Z" fill="#00386C"/>
<path d="M13.0761 21.1559C13.052 21.1559 13.0218 21.1499 12.9977 21.1439C11.791 20.806 10.9524 19.6959 10.9524 18.447C10.9524 17.6687 11.2842 16.9145 11.8574 16.3836C11.9781 16.275 12.1651 16.281 12.2797 16.4017C12.3883 16.5223 12.3823 16.7094 12.2616 16.824C11.8091 17.2403 11.5497 17.8316 11.5497 18.447C11.5497 19.4364 12.2134 20.3113 13.1606 20.5767C13.3175 20.619 13.414 20.7819 13.3657 20.9448C13.3235 21.0715 13.2028 21.1559 13.0761 21.1559Z" fill="#00386C"/>
<path d="M15.3628 22.3507C15.3387 22.3507 15.3206 22.3507 15.2965 22.3507C15.1336 22.3447 15.0069 22.2059 15.0129 22.043C15.0189 21.8801 15.1517 21.7595 15.3085 21.7595H15.3628C15.4171 21.7595 15.4775 21.7534 15.5318 21.7474C16.4549 21.6267 17.1065 20.7821 16.9858 19.859C16.9617 19.6599 16.9013 19.4728 16.8108 19.3039C16.7324 19.1591 16.7927 18.9781 16.9375 18.9057C17.0823 18.8272 17.2633 18.8876 17.3357 19.0324C17.4564 19.2677 17.5409 19.5211 17.571 19.7866C17.7339 21.0294 16.8531 22.1758 15.6042 22.3387C15.5257 22.3447 15.4473 22.3507 15.3628 22.3507Z" fill="#00386C"/>
<path d="M14.7594 24.1726C13.5045 24.1726 12.4849 23.153 12.4849 21.8981C12.4849 20.9448 13.0822 20.082 13.9751 19.7562C14.132 19.7019 14.3009 19.7804 14.3552 19.9312C14.4095 20.0881 14.3311 20.257 14.1802 20.3113C13.5226 20.5526 13.0761 21.1861 13.0761 21.892C13.0761 22.8212 13.8303 23.5753 14.7594 23.5753C15.0008 23.5753 15.2421 23.521 15.4653 23.4185C15.6162 23.3521 15.7911 23.4124 15.8575 23.5633C15.9299 23.7141 15.8635 23.8891 15.7127 23.9554C15.411 24.1002 15.0913 24.1726 14.7594 24.1726Z" fill="#00386C"/>
<path d="M17.221 25.6085C16.1592 25.6085 15.2964 24.7458 15.2964 23.6839C15.2964 23.2978 15.411 22.9237 15.6282 22.6039C15.7187 22.4712 15.9058 22.435 16.0385 22.5255C16.1773 22.616 16.2074 22.803 16.1169 22.9358C15.9661 23.153 15.8877 23.4124 15.8877 23.6779C15.8877 24.4139 16.485 25.0112 17.221 25.0112C17.9571 25.0112 18.5544 24.4139 18.5544 23.6779V8.31697C18.5544 7.8524 18.1743 7.4723 17.7097 7.4723C17.2452 7.4723 16.8651 7.8524 16.8651 8.31697C16.8651 8.49797 16.9194 8.67294 17.028 8.81774C17.1245 8.95047 17.0943 9.1375 16.9616 9.23404C16.8289 9.33057 16.6418 9.3004 16.5453 9.16767C16.3643 8.9203 16.2678 8.62467 16.2678 8.31697C16.2678 7.52057 16.9133 6.875 17.7097 6.875C18.5061 6.875 19.1517 7.52057 19.1517 8.31697V23.6839C19.1457 24.7458 18.2829 25.6085 17.221 25.6085Z" fill="#00386C"/>
<path d="M19.5981 2.40427C19.4352 2.40427 19.3025 2.27154 19.3025 2.10864V0.304667C19.3025 0.141767 19.4352 0.0090332 19.5981 0.0090332C19.761 0.0090332 19.8938 0.141767 19.8938 0.304667V2.1026C19.8938 2.27154 19.761 2.40427 19.5981 2.40427Z" fill="#00386C"/>
<path d="M26.5002 4.25041C26.4519 4.25041 26.3976 4.23834 26.3494 4.20817C26.2046 4.12371 26.1563 3.9427 26.2408 3.80394L27.1398 2.24734C27.2242 2.10254 27.4052 2.0603 27.544 2.13874C27.6888 2.2232 27.7371 2.4042 27.6526 2.54297L26.7536 4.09957C26.6993 4.20214 26.6028 4.25041 26.5002 4.25041Z" fill="#00386C"/>
<path d="M31.55 9.30639C31.4475 9.30639 31.3449 9.25209 31.2906 9.15556C31.2061 9.01076 31.2544 8.82976 31.3992 8.75132L32.9558 7.85235C33.1006 7.76789 33.2816 7.81615 33.36 7.96095C33.4445 8.10575 33.3962 8.28675 33.2514 8.36519L31.6948 9.26416C31.6526 9.28829 31.5983 9.30639 31.55 9.30639Z" fill="#00386C"/>
<path d="M35.2003 16.2026H33.4023C33.2394 16.2026 33.1067 16.0699 33.1067 15.907C33.1067 15.7441 33.2394 15.6113 33.4023 15.6113H35.2003C35.3632 15.6113 35.4959 15.7441 35.4959 15.907C35.4959 16.0699 35.3632 16.2026 35.2003 16.2026Z" fill="#00386C"/>
<path d="M12.6959 4.2504C12.5933 4.2504 12.4908 4.1961 12.4365 4.09957L11.5435 2.54296C11.459 2.39816 11.5073 2.21716 11.6521 2.13873C11.7909 2.05426 11.9779 2.10253 12.0564 2.24733L12.9553 3.80393C13.0398 3.94873 12.9915 4.12973 12.8467 4.20817C12.7985 4.23833 12.7502 4.2504 12.6959 4.2504Z" fill="#00386C"/>
<path d="M7.64593 9.30639C7.59766 9.30639 7.54336 9.29433 7.4951 9.26416L5.93849 8.36519C5.79369 8.28073 5.74543 8.09973 5.82989 7.96096C5.91436 7.81616 6.09536 7.77392 6.23413 7.85236L7.79073 8.75133C7.93553 8.83579 7.9838 9.01679 7.89933 9.15556C7.85106 9.25209 7.7485 9.30639 7.64593 9.30639Z" fill="#00386C"/>
<path d="M5.7998 16.2026H3.99583C3.83293 16.2026 3.7002 16.0699 3.7002 15.907C3.7002 15.7441 3.83293 15.6113 3.99583 15.6113H5.79377C5.95667 15.6113 6.0894 15.7441 6.0894 15.907C6.09543 16.0699 5.9627 16.2026 5.7998 16.2026Z" fill="#00386C"/>
<path d="M17.939 27.7623C17.8063 27.7623 17.6796 27.6718 17.6494 27.533L17.1426 25.3731C17.1064 25.2162 17.2029 25.0533 17.3658 25.0171C17.5287 24.9809 17.6856 25.0774 17.7218 25.2403L18.2286 27.4003C18.2648 27.5571 18.1683 27.72 18.0054 27.7562C17.9812 27.7623 17.9571 27.7623 17.939 27.7623Z" fill="#00386C"/>
<path d="M21.2573 27.7622C21.2332 27.7622 21.2091 27.7622 21.191 27.7562C21.0341 27.72 20.9315 27.5571 20.9677 27.4002L21.4745 25.2403C21.5107 25.0834 21.6676 24.9808 21.8305 25.017C21.9874 25.0532 22.0899 25.2161 22.0537 25.373L21.5469 27.533C21.5168 27.6717 21.3961 27.7622 21.2573 27.7622Z" fill="#00386C"/>
</g>
<defs>
<clipPath id="clip0_715_167">
<rect width="38.6134" height="38.6134" fill="white" transform="translate(0.29126 0.0090332)"/>
</clipPath>
</defs>
</svg>
