<svg width="30" height="30" viewBox="0 0 30 30" fill="none" xmlns="http://www.w3.org/2000/svg">
<path d="M14.9308 29.5292C6.99044 29.5203 0.555754 23.0857 0.546875 15.1453C1.33697 -3.93692 28.5276 -3.93144 29.3148 15.1453C29.3058 23.0856 22.8711 29.5203 14.9308 29.5292ZM14.9308 1.64651C7.47913 1.65498 1.44045 7.69357 1.43199 15.1452C2.1737 33.0531 27.6904 33.0479 28.4295 15.1452C28.421 7.69366 22.3824 1.65498 14.9308 1.64651Z" fill="#00386C"/>
<path d="M14.9308 23.9527C11.0586 23.9546 7.55381 21.6601 6.0069 18.1103C5.90931 17.8861 6.01179 17.6253 6.23602 17.5276C6.46016 17.4301 6.72098 17.5325 6.81865 17.7568C9.84666 24.7943 20.0165 24.7922 23.0429 17.7568C23.1406 17.5326 23.4015 17.4301 23.6256 17.5278C23.8498 17.6255 23.9523 17.8864 23.8546 18.1105C22.3077 21.6602 18.803 23.9546 14.9308 23.9527Z" fill="#00386C"/>
<path d="M10.0623 14.0389C9.08457 14.0389 8.29199 13.2463 8.29199 12.2686C8.29199 11.2909 9.08457 10.4983 10.0623 10.4983C11.04 10.4983 11.8326 11.2909 11.8326 12.2686C11.8327 13.2463 11.04 14.0389 10.0623 14.0389ZM10.0623 11.3834C9.57343 11.3834 9.1771 11.7797 9.1771 12.2686C9.1771 12.7575 9.57343 13.1538 10.0623 13.1538C10.5512 13.1538 10.9475 12.7575 10.9475 12.2686C10.9475 11.7797 10.5512 11.3834 10.0623 11.3834Z" fill="#00386C"/>
<path d="M19.7991 14.0389C18.8214 14.0389 18.0288 13.2463 18.0288 12.2686C18.0288 11.2909 18.8214 10.4983 19.7991 10.4983C20.7768 10.4983 21.5694 11.2909 21.5694 12.2686C21.5694 13.2463 20.7768 14.0389 19.7991 14.0389ZM19.7991 11.3834C19.3103 11.3834 18.9139 11.7797 18.9139 12.2686C18.9139 12.7575 19.3103 13.1538 19.7991 13.1538C20.288 13.1538 20.6843 12.7575 20.6843 12.2686C20.6843 11.7797 20.288 11.3834 19.7991 11.3834Z" fill="#00386C"/>
</svg>
