<svg width="40" height="39" viewBox="0 0 40 39" fill="none" xmlns="http://www.w3.org/2000/svg">
<path d="M19.9328 6.00493C14.8844 6.00493 10.7772 10.1121 10.7772 15.1605C10.7772 20.2089 14.8844 24.3161 19.9328 24.3161C24.9812 24.3161 29.0884 20.2089 29.0884 15.1605C29.0884 10.1121 24.9812 6.00493 19.9328 6.00493ZM19.9328 23.4111C15.3836 23.4111 11.6822 19.7097 11.6822 15.1605C11.6822 10.6114 15.3836 6.90993 19.9328 6.90993C24.4819 6.90993 28.1834 10.6114 28.1834 15.1605C28.1834 19.7097 24.4819 23.4111 19.9328 23.4111ZM30.2784 22.8206L30.2882 20.3002L32.6654 17.9049C33.9362 16.6244 33.9362 14.5414 32.6654 13.2608L30.8901 11.4719L30.8773 8.09775C30.8705 6.29378 29.3976 4.82089 27.5936 4.8141L25.0732 4.80429L22.6779 2.42867C21.3974 1.15789 19.3144 1.15789 18.0338 2.42867L16.2449 4.20398L12.8707 4.2168C11.0668 4.22359 9.59388 5.69648 9.58709 7.50045L9.57729 10.0209L7.20015 12.4161C5.92938 13.6967 5.92938 15.7797 7.20015 17.0603L8.97546 18.8492L8.98828 22.2233C8.99432 23.8282 10.1618 25.1706 11.6897 25.4519L8.34649 34.6377C8.28163 34.8149 8.33442 35.0148 8.47847 35.1369C8.62251 35.2599 8.82764 35.2795 8.99205 35.1875L13.5736 32.6316L15.4402 37.5344C15.5073 37.7102 15.6755 37.8263 15.8633 37.8263H15.8663C16.0556 37.8248 16.2238 37.7064 16.2879 37.5284L19.4486 28.8449C19.469 28.8449 19.4886 28.8464 19.5089 28.8464C19.8 28.8464 20.0911 28.8072 20.374 28.731L23.5762 37.5276C23.641 37.7049 23.8092 37.824 23.9977 37.8255H24.0007C24.1885 37.8255 24.3567 37.7094 24.4238 37.5337L26.2904 32.6308L30.872 35.1867C31.0371 35.2787 31.2423 35.2584 31.3856 35.1362C31.5296 35.014 31.5816 34.8141 31.5175 34.6369L28.3093 25.823C29.4632 25.3109 30.2732 24.157 30.2784 22.8206ZM12.6332 25.507L13.453 25.51L10.6437 33.2289L9.61424 33.8036L12.6332 25.507ZM13.9658 31.5546C13.8421 31.5094 13.7056 31.5207 13.5902 31.5848L11.8511 32.5547L14.4138 25.5137L14.7924 25.5153L17.085 27.7906L14.9417 33.6799L14.2328 31.8186C14.1868 31.6964 14.0895 31.5999 13.9658 31.5546ZM15.8542 36.0751L15.4349 34.9733L17.8317 28.3886C18.0564 28.5214 18.2947 28.6247 18.5391 28.6994L15.8542 36.0751ZM24.0113 36.0751L21.2088 28.3758C21.4305 28.2423 21.6402 28.0817 21.8318 27.8916L21.8476 27.8758L24.4306 34.9725L24.0113 36.0751ZM26.2753 31.5848C26.1607 31.5207 26.0234 31.5094 25.8997 31.5546C25.7761 31.5999 25.678 31.6957 25.6313 31.8186L24.9231 33.6799L22.555 27.1737L23.6199 26.1163L25.6675 26.1088L28.0137 32.5547L26.2753 31.5848ZM30.252 33.8036L29.2226 33.2289L26.6298 26.105L26.9948 26.1035C27.1456 26.1028 27.2934 26.0914 27.4382 26.0711L30.252 33.8036ZM26.991 25.1993L23.4314 25.2128C23.3122 25.2136 23.1991 25.2603 23.1146 25.3441L21.1945 27.2498C20.2661 28.1714 18.7548 28.1714 17.8256 27.2498L15.2992 24.7422C15.2147 24.6585 15.1008 24.6118 14.9824 24.611L12.2772 24.6005C10.9687 24.5952 9.90007 23.5265 9.89479 22.218L9.88122 18.6584C9.88046 18.5392 9.8337 18.4253 9.74999 18.3416L7.84346 16.4223C6.92186 15.4931 6.92186 13.9825 7.84346 13.0534L10.3511 10.5269C10.4348 10.4425 10.4823 10.3286 10.4823 10.2102L10.4928 7.50497C10.4981 6.19649 11.5668 5.12783 12.8753 5.12255L16.4349 5.10898C16.5541 5.10822 16.6672 5.06147 16.7517 4.97775L18.6718 3.07197C19.1364 2.61117 19.7465 2.3804 20.3559 2.3804C20.9652 2.3804 21.5761 2.61117 22.0407 3.07197L24.5671 5.57958C24.6516 5.66329 24.7655 5.7108 24.8839 5.7108L27.5891 5.72136C28.8976 5.72664 29.9662 6.7953 29.9715 8.10378L29.9851 11.6635C29.9858 11.7826 30.0326 11.8957 30.1163 11.9802L32.0221 13.9003C32.9437 14.8294 32.9437 16.34 32.0221 17.2692L29.5145 19.7956C29.4308 19.8801 29.3832 19.994 29.3832 20.1124L29.3734 22.8168C29.3682 24.1253 28.2995 25.194 26.991 25.1993ZM25.1607 11.3648C24.8892 11.0933 24.5279 10.944 24.1433 10.944C23.7587 10.944 23.3974 11.0933 23.1259 11.3648L18.6462 15.8453L16.7404 13.9395C16.1793 13.3784 15.2667 13.3784 14.7056 13.9395L14.6755 13.9697C14.1144 14.5308 14.1144 15.4433 14.6755 16.0044L17.6288 18.9578C17.9093 19.2383 18.2774 19.3786 18.6462 19.3786C19.0149 19.3786 19.383 19.2383 19.6635 18.9578L25.1908 13.4305C25.7519 12.8694 25.7519 11.9568 25.1908 11.3957L25.1607 11.3648ZM24.5505 12.7894L19.0232 18.3167C18.8151 18.5249 18.4765 18.5249 18.2683 18.3167L15.315 15.3634C15.1068 15.1552 15.1068 14.8166 15.315 14.6085L15.3452 14.5783C15.4492 14.4742 15.5857 14.4222 15.7222 14.4222C15.8588 14.4222 15.996 14.4742 16.1001 14.5783L18.3256 16.8039C18.4109 16.8883 18.5255 16.9366 18.6454 16.9366C18.7653 16.9366 18.8807 16.8891 18.9652 16.8039L23.7654 12.0036C23.8658 11.9033 24 11.8482 24.1433 11.8482C24.2866 11.8482 24.4208 11.9033 24.5204 12.0036L24.5505 12.0337C24.6508 12.1341 24.7059 12.2683 24.7059 12.4116C24.7059 12.5549 24.6508 12.6891 24.5505 12.7894Z" fill="#00386C"/>
</svg>
