<svg width="24" height="25" viewBox="0 0 24 25" fill="none" xmlns="http://www.w3.org/2000/svg">
<path d="M12 19.5376C16.1421 19.5376 19.5 16.1797 19.5 12.0376C19.5 7.89546 16.1421 4.5376 12 4.5376C7.85786 4.5376 4.5 7.89546 4.5 12.0376C4.5 16.1797 7.85786 19.5376 12 19.5376Z" stroke="#3C73A7" stroke-width="1.5" stroke-linecap="round" stroke-linejoin="round"/>
<path d="M12 15.0376C13.6569 15.0376 15 13.6945 15 12.0376C15 10.3807 13.6569 9.0376 12 9.0376C10.3431 9.0376 9 10.3807 9 12.0376C9 13.6945 10.3431 15.0376 12 15.0376Z" stroke="#3C73A7" stroke-width="1.5" stroke-linecap="round" stroke-linejoin="round"/>
<path d="M12 4.0376V2.0376" stroke="#3C73A7" stroke-width="1.5" stroke-linecap="round" stroke-linejoin="round"/>
<path d="M4 12.0376H2" stroke="#3C73A7" stroke-width="1.5" stroke-linecap="round" stroke-linejoin="round"/>
<path d="M12 20.0376V22.0376" stroke="#3C73A7" stroke-width="1.5" stroke-linecap="round" stroke-linejoin="round"/>
<path d="M20 12.0376H22" stroke="#3C73A7" stroke-width="1.5" stroke-linecap="round" stroke-linejoin="round"/>
</svg>
