<svg width="24" height="25" viewBox="0 0 24 25" fill="none" xmlns="http://www.w3.org/2000/svg">
<path d="M12 19.8333C16.1421 19.8333 19.5 16.4754 19.5 12.3333C19.5 8.19118 16.1421 4.83331 12 4.83331C7.85786 4.83331 4.5 8.19118 4.5 12.3333C4.5 16.4754 7.85786 19.8333 12 19.8333Z" stroke="#3C73A7" stroke-width="1.5" stroke-linecap="round" stroke-linejoin="round"/>
<path d="M12 15.3333C13.6569 15.3333 15 13.9902 15 12.3333C15 10.6765 13.6569 9.33331 12 9.33331C10.3431 9.33331 9 10.6765 9 12.3333C9 13.9902 10.3431 15.3333 12 15.3333Z" stroke="#3C73A7" stroke-width="1.5" stroke-linecap="round" stroke-linejoin="round"/>
<path d="M12 4.33331V2.33331" stroke="#3C73A7" stroke-width="1.5" stroke-linecap="round" stroke-linejoin="round"/>
<path d="M4 12.3333H2" stroke="#3C73A7" stroke-width="1.5" stroke-linecap="round" stroke-linejoin="round"/>
<path d="M12 20.3333V22.3333" stroke="#3C73A7" stroke-width="1.5" stroke-linecap="round" stroke-linejoin="round"/>
<path d="M20 12.3333H22" stroke="#3C73A7" stroke-width="1.5" stroke-linecap="round" stroke-linejoin="round"/>
</svg>
