<svg width="39" height="40" viewBox="0 0 39 40" fill="none" xmlns="http://www.w3.org/2000/svg">
<g clip-path="url(#clip0_517_3173)">
<path d="M24.0043 32.2878H14.8577C14.2665 32.2878 13.826 31.8172 13.826 31.1957V30.9303C13.826 28.6738 12.8909 26.4716 11.1955 24.722C8.98124 22.4353 7.83491 19.4187 7.97367 16.2331C8.22708 10.3626 13.0236 5.55404 18.888 5.28857C22.0676 5.14377 25.0601 6.26597 27.3467 8.45004C29.6334 10.6341 30.8943 13.5844 30.8943 16.7459C30.8943 19.7927 29.7118 22.6586 27.57 24.8185C25.9349 26.4656 25.0299 28.5652 25.0299 30.7251V31.2621C25.036 31.8232 24.5714 32.2878 24.0043 32.2878ZM19.437 5.86174C19.2621 5.86174 19.0931 5.86777 18.9182 5.87381C13.3554 6.12721 8.81231 10.6884 8.57098 16.2512C8.43824 19.2739 9.52424 22.1337 11.6299 24.3057C13.4339 26.1639 14.4233 28.5169 14.4233 30.9242V31.1897C14.4233 31.4793 14.6104 31.6905 14.8638 31.6905H24.0103C24.2516 31.6905 24.4507 31.4914 24.4507 31.25V30.7131C24.4507 28.3963 25.4161 26.1519 27.1597 24.3901C29.1929 22.3388 30.3151 19.6178 30.3151 16.7338C30.3151 13.7353 29.1205 10.9418 26.9485 8.86635C24.8972 6.92361 22.2486 5.86174 19.437 5.86174Z" fill="#00386C"/>
<path d="M23.1297 34.2004H15.7328C14.9967 34.2004 14.3994 33.6393 14.3994 32.9455C14.3994 32.2577 14.9967 31.6906 15.7328 31.6906C15.8957 31.6906 16.0284 31.8233 16.0284 31.9862C16.0284 32.1491 15.8957 32.2818 15.7328 32.2818C15.3285 32.2818 14.9907 32.5775 14.9907 32.9395C14.9907 33.3015 15.3225 33.5971 15.7328 33.5971H23.1297C23.5399 33.5971 23.8718 33.3015 23.8718 32.9395C23.8718 32.5775 23.5399 32.2818 23.1297 32.2818C22.9668 32.2818 22.834 32.1491 22.834 31.9862C22.834 31.8233 22.9668 31.6906 23.1297 31.6906C23.8657 31.6906 24.463 32.2517 24.463 32.9455C24.463 33.6393 23.8657 34.2004 23.1297 34.2004Z" fill="#00386C"/>
<path d="M23.1297 36.1069H15.7328C14.9967 36.1069 14.3994 35.5458 14.3994 34.852C14.3994 34.1642 14.9967 33.597 15.7328 33.597C15.8957 33.597 16.0284 33.7298 16.0284 33.8927C16.0284 34.0556 15.8957 34.1883 15.7328 34.1883C15.3285 34.1883 14.9907 34.4839 14.9907 34.846C14.9907 35.208 15.3225 35.5036 15.7328 35.5036H23.1297C23.5399 35.5036 23.8718 35.208 23.8718 34.846C23.8718 34.4839 23.5399 34.1883 23.1297 34.1883C22.9668 34.1883 22.834 34.0556 22.834 33.8927C22.834 33.7298 22.9668 33.597 23.1297 33.597C23.8657 33.597 24.463 34.1581 24.463 34.852C24.463 35.5458 23.8657 36.1069 23.1297 36.1069Z" fill="#00386C"/>
<path d="M22.9485 37.8867H15.9137C15.2621 37.8867 14.7251 37.3557 14.7251 36.6981C14.7251 36.0465 15.256 35.5095 15.9137 35.5095H22.9485C23.6001 35.5095 24.1371 36.0405 24.1371 36.6981C24.1371 37.3557 23.6062 37.8867 22.9485 37.8867ZM15.9137 36.1068C15.5879 36.1068 15.3224 36.3723 15.3224 36.6981C15.3224 37.0239 15.5879 37.2894 15.9137 37.2894H22.9485C23.2743 37.2894 23.5398 37.0239 23.5398 36.6981C23.5398 36.3723 23.2743 36.1068 22.9485 36.1068H15.9137Z" fill="#00386C"/>
<path d="M20.0165 39.4736H18.8521C17.7419 39.4736 16.8369 38.6289 16.8369 37.5912C16.8369 37.4283 16.9696 37.2955 17.1325 37.2955C17.2954 37.2955 17.4282 37.4283 17.4282 37.5912C17.4282 38.3031 18.0677 38.8763 18.8521 38.8763H20.0165C20.8008 38.8763 21.4404 38.2971 21.4404 37.5912C21.4404 37.4283 21.5731 37.2955 21.736 37.2955C21.8989 37.2955 22.0316 37.4283 22.0316 37.5912C22.0316 38.6289 21.1266 39.4736 20.0165 39.4736Z" fill="#00386C"/>
<path d="M22.2549 32.2878C22.092 32.2878 21.9592 32.1551 21.9592 31.9922V29.4401C21.9592 28.9816 21.6636 28.6135 21.3016 28.6135H17.5609C17.1989 28.6135 16.9033 28.9876 16.9033 29.4401V31.9922C16.9033 32.1551 16.7705 32.2878 16.6076 32.2878C16.4447 32.2878 16.312 32.1551 16.312 31.9922V29.4401C16.312 28.6558 16.8731 28.0162 17.5669 28.0162H21.3076C21.9954 28.0162 22.5626 28.6558 22.5626 29.4401V31.9922C22.5565 32.1551 22.4238 32.2878 22.2549 32.2878Z" fill="#00386C"/>
<path d="M20.8314 12.6131C20.7289 12.6131 20.6323 12.5588 20.578 12.4744C20.5237 12.3899 20.5177 12.2813 20.5599 12.1848C20.8918 11.503 21.6399 11.1169 22.382 11.2496C22.5449 11.2798 22.6535 11.4306 22.6233 11.5935C22.5932 11.7564 22.4363 11.859 22.2794 11.8348C21.8088 11.7504 21.3322 11.9857 21.115 12.414C21.0667 12.5347 20.9581 12.6131 20.8314 12.6131Z" fill="#00386C"/>
<path d="M24.4457 11.334C24.3854 11.334 24.325 11.3159 24.2707 11.2737C24.138 11.1772 24.1078 10.9901 24.2044 10.8574C24.3371 10.6764 24.4095 10.4531 24.4095 10.2239C24.4095 9.62055 23.9208 9.12581 23.3114 9.12581C23.0701 9.12581 22.8288 9.20425 22.6478 9.35508C22.5211 9.45765 22.334 9.43351 22.2315 9.30681C22.1289 9.18011 22.153 8.99308 22.2797 8.89051C22.5693 8.66125 22.9374 8.53455 23.3114 8.53455C24.2406 8.53455 25.0008 9.29475 25.0008 10.2299C25.0008 10.5859 24.8861 10.9358 24.681 11.2194C24.6267 11.2918 24.5362 11.334 24.4457 11.334Z" fill="#00386C"/>
<path d="M26.1768 15.4064C26.0923 15.4064 26.0078 15.3702 25.9475 15.2978C25.8449 15.1711 25.863 14.9841 25.9837 14.8815C26.4483 14.4954 26.7137 13.9343 26.7137 13.331C26.7137 12.2208 25.8148 11.3219 24.7046 11.3219C24.3607 11.3219 24.0229 11.4063 23.7272 11.5753C23.5824 11.6537 23.4014 11.6054 23.323 11.4606C23.2446 11.3158 23.2928 11.1348 23.4376 11.0564C23.8238 10.8392 24.2582 10.7306 24.7046 10.7306C26.1406 10.7306 27.311 11.9011 27.311 13.337C27.311 14.1153 26.9671 14.8453 26.3698 15.3461C26.3095 15.3823 26.2431 15.4064 26.1768 15.4064Z" fill="#00386C"/>
<path d="M23.8545 13.7473C22.9977 13.7473 22.2255 13.15 22.0384 12.2872C21.8936 11.6296 22.1229 10.9418 22.6237 10.4953C22.7443 10.3867 22.9374 10.3988 23.046 10.5195C23.1546 10.6401 23.1425 10.8272 23.0219 10.9358C22.678 11.2374 22.5271 11.708 22.6237 12.1545C22.7745 12.8363 23.4442 13.2707 24.126 13.1198C24.4095 13.0595 24.669 12.8966 24.85 12.6673C24.9525 12.5406 25.1396 12.5165 25.2663 12.6191C25.393 12.7216 25.4171 12.9087 25.3145 13.0354C25.0491 13.3732 24.669 13.6146 24.2466 13.7051C24.1199 13.7292 23.9872 13.7473 23.8545 13.7473Z" fill="#00386C"/>
<path d="M25.9176 16.7459C25.7185 16.7459 25.5133 16.7036 25.3203 16.6192C24.9341 16.4563 24.6264 16.1486 24.4515 15.7564C24.4092 15.6538 24.373 15.5513 24.3489 15.4487C24.3127 15.2918 24.4092 15.1289 24.5721 15.0927C24.735 15.0565 24.8919 15.1591 24.9281 15.316C24.9462 15.3823 24.9643 15.4487 24.9945 15.5151C25.1091 15.7685 25.3022 15.9676 25.5495 16.0701C25.7848 16.1727 26.0443 16.1727 26.2675 16.0701C26.3158 16.046 26.358 16.0219 26.4002 15.9977C26.539 15.9072 26.72 15.9374 26.8105 16.0762C26.901 16.2089 26.8708 16.3959 26.7321 16.4864C26.6597 16.5347 26.5812 16.5769 26.5028 16.6131C26.3218 16.6976 26.1167 16.7459 25.9176 16.7459Z" fill="#00386C"/>
<path d="M23.6372 17.7476C23.6311 17.7476 23.6311 17.7476 23.6251 17.7476C23.4622 17.7415 23.3355 17.6028 23.3415 17.4399C23.3475 17.3433 23.3536 17.2468 23.3777 17.1503C23.5346 16.3961 24.1862 15.8471 25.0067 15.7867C25.1636 15.7747 25.3144 15.8953 25.3265 16.0582C25.3386 16.2211 25.2179 16.3659 25.055 16.378C24.506 16.4202 24.0655 16.7822 23.9629 17.277C23.9509 17.3433 23.9449 17.4097 23.9388 17.47C23.9328 17.6269 23.8001 17.7476 23.6372 17.7476Z" fill="#00386C"/>
<path d="M21.3203 19.5454C21.3142 19.5454 21.3142 19.5454 21.3082 19.5454C21.1453 19.5393 21.0186 19.4006 21.0246 19.2377C21.0307 19.1411 21.0367 19.0446 21.0608 18.9481C21.1815 18.3387 21.6521 17.844 22.2856 17.6569C22.4425 17.6087 22.6054 17.6992 22.6536 17.856C22.7019 18.0129 22.6114 18.1758 22.4545 18.2241C22.0322 18.3447 21.7245 18.6705 21.6461 19.0687C21.628 19.1411 21.628 19.2015 21.6219 19.2618C21.6099 19.4247 21.4771 19.5454 21.3203 19.5454Z" fill="#00386C"/>
<path d="M26.2432 18.0492C26.0984 18.0492 25.9777 17.9466 25.9536 17.8018C25.9234 17.6389 26.038 17.4881 26.1949 17.4579C26.943 17.3312 27.486 16.6857 27.486 15.9255C27.486 15.3463 27.1723 14.8213 26.6595 14.5498C26.5147 14.4714 26.4604 14.2904 26.5388 14.1456C26.6172 14.0008 26.7982 13.9465 26.943 14.0249C27.6429 14.399 28.0833 15.129 28.0833 15.9255C28.0833 16.9753 27.3292 17.8682 26.2975 18.0432C26.2794 18.0432 26.2613 18.0492 26.2432 18.0492Z" fill="#00386C"/>
<path d="M25.2481 20.0823C24.4578 20.0823 23.6915 19.8108 23.0701 19.3101C21.9539 18.4051 21.5014 16.8847 21.9539 15.5211C22.0022 15.3643 22.1711 15.2798 22.328 15.3341C22.4849 15.3884 22.5693 15.5513 22.515 15.7082C22.141 16.8424 22.515 18.1034 23.4381 18.8515C23.9932 19.298 24.681 19.5273 25.3929 19.4911C25.5739 19.485 25.6946 19.6117 25.7067 19.7746C25.7127 19.9375 25.592 20.0763 25.4231 20.0884C25.3688 20.0823 25.3085 20.0823 25.2481 20.0823Z" fill="#00386C"/>
<path d="M25.9536 22.0069C25.8209 22.0069 25.7062 21.9225 25.67 21.7897C25.6278 21.6329 25.7183 21.47 25.8752 21.4217C26.8224 21.1562 27.4861 20.2814 27.4861 19.2919C27.4861 18.6765 27.2266 18.0853 26.7741 17.669C26.6535 17.5604 26.6474 17.3673 26.756 17.2466C26.8646 17.126 27.0577 17.1199 27.1784 17.2285C27.7515 17.7595 28.0834 18.5076 28.0834 19.2919C28.0834 20.5469 27.2387 21.657 26.0381 21.9888C26.0079 22.0009 25.9838 22.0069 25.9536 22.0069Z" fill="#00386C"/>
<path d="M23.6667 23.2016C23.5823 23.2016 23.5038 23.1956 23.4194 23.1835C22.1705 23.0206 21.2896 21.8743 21.4525 20.6314C21.4887 20.366 21.5671 20.1065 21.6878 19.8773C21.7662 19.7325 21.9412 19.6782 22.086 19.7506C22.2308 19.829 22.2851 20.004 22.2127 20.1488C22.1222 20.3237 22.0619 20.5108 22.0377 20.7099C21.9171 21.633 22.5687 22.4776 23.4918 22.5983C23.5642 22.6043 23.6366 22.6104 23.7029 22.6104C23.8839 22.5983 24.0046 22.731 24.0106 22.8939C24.0167 23.0568 23.89 23.1956 23.7271 23.2016C23.709 23.2016 23.6848 23.2016 23.6667 23.2016Z" fill="#00386C"/>
<path d="M24.2703 25.0236C23.9385 25.0236 23.6187 24.9512 23.3171 24.8125C23.1662 24.7461 23.1059 24.5651 23.1723 24.4203C23.2386 24.2695 23.4196 24.2091 23.5644 24.2755C23.7877 24.3781 24.023 24.4324 24.2703 24.4324C25.1995 24.4324 25.9536 23.6782 25.9536 22.7491C25.9536 22.0432 25.5132 21.4097 24.8495 21.1683C24.6927 21.114 24.6142 20.9391 24.6746 20.7882C24.7289 20.6374 24.8978 20.5529 25.0547 20.6133C25.9476 20.9391 26.5509 21.7958 26.5509 22.7551C26.5449 24.004 25.5253 25.0236 24.2703 25.0236Z" fill="#00386C"/>
<path d="M21.8089 26.4595C20.747 26.4595 19.8843 25.5967 19.8843 24.5348V9.16792C19.8843 8.37152 20.5298 7.72595 21.3262 7.72595C22.1226 7.72595 22.7682 8.37152 22.7682 9.16792C22.7682 9.47562 22.6717 9.77126 22.4907 10.0186C22.3941 10.1514 22.2071 10.1815 22.0744 10.085C21.9416 9.98846 21.9115 9.80142 22.008 9.66869C22.1166 9.52389 22.1709 9.34892 22.1709 9.16792C22.1709 8.70335 21.7908 8.32325 21.3262 8.32325C20.8617 8.32325 20.4816 8.70335 20.4816 9.16792V24.5348C20.4816 25.2709 21.0789 25.8682 21.8149 25.8682C22.551 25.8682 23.1483 25.2709 23.1483 24.5348C23.1483 24.2694 23.0699 24.0099 22.919 23.7927C22.8285 23.654 22.8647 23.473 22.9975 23.3825C23.1302 23.292 23.3173 23.3282 23.4078 23.4609C23.625 23.7807 23.7396 24.1547 23.7396 24.5409C23.7396 25.5967 22.8708 26.4595 21.8089 26.4595Z" fill="#00386C"/>
<path d="M14.418 11.3339C14.3275 11.3339 14.237 11.2917 14.1767 11.2133C13.9716 10.9297 13.8569 10.5798 13.8569 10.2238C13.8569 9.28864 14.6171 8.52844 15.5463 8.52844C15.9264 8.52844 16.2884 8.65514 16.584 8.88441C16.7107 8.98698 16.7348 9.17401 16.6323 9.30071C16.5297 9.42741 16.3427 9.45154 16.216 9.34898C16.0289 9.20418 15.7936 9.11971 15.5463 9.11971C14.9429 9.11971 14.4482 9.61444 14.4482 10.2178C14.4482 10.447 14.5206 10.6763 14.6533 10.8513C14.7499 10.984 14.7197 11.171 14.587 11.2676C14.5387 11.3158 14.4784 11.3339 14.418 11.3339Z" fill="#00386C"/>
<path d="M12.6868 15.4066C12.6205 15.4066 12.5541 15.3825 12.4998 15.3402C11.9025 14.8455 11.5586 14.1094 11.5586 13.3311C11.5586 11.8952 12.7291 10.7247 14.165 10.7247C14.6115 10.7247 15.0459 10.8394 15.432 11.0505C15.5768 11.129 15.6251 11.31 15.5466 11.4548C15.4682 11.5996 15.2872 11.6478 15.1424 11.5694C14.8468 11.4065 14.5089 11.316 14.165 11.316C13.0549 11.316 12.1559 12.215 12.1559 13.3251C12.1559 13.9284 12.4214 14.4895 12.8859 14.8757C13.0126 14.9782 13.0307 15.1653 12.9221 15.292C12.8558 15.3644 12.7713 15.4066 12.6868 15.4066Z" fill="#00386C"/>
<path d="M18.0321 12.6131C17.9054 12.6131 17.7968 12.5347 17.7546 12.42C17.5313 11.9917 17.0607 11.7564 16.5901 11.8408C16.4333 11.871 16.2764 11.7624 16.2462 11.5995C16.2161 11.4366 16.3247 11.2858 16.4876 11.2556C17.2297 11.1229 17.9778 11.503 18.3096 12.1908C18.3519 12.2813 18.3458 12.3899 18.2915 12.4804C18.2312 12.5588 18.1347 12.6131 18.0321 12.6131Z" fill="#00386C"/>
<path d="M15.0091 13.7473C14.8763 13.7473 14.7436 13.7352 14.6109 13.7051C14.1885 13.6146 13.8084 13.3732 13.543 13.0354C13.4404 12.9087 13.4645 12.7216 13.5912 12.6191C13.7179 12.5165 13.905 12.5406 14.0075 12.6673C14.1885 12.8966 14.448 13.0595 14.7315 13.1198C15.0634 13.1922 15.4012 13.1319 15.6848 12.9509C15.9684 12.7699 16.1614 12.4863 16.2338 12.1545C16.3304 11.708 16.1795 11.2374 15.8356 10.9358C15.715 10.8272 15.7029 10.6401 15.8115 10.5195C15.9201 10.3988 16.1071 10.3867 16.2338 10.4953C16.7407 10.9418 16.9639 11.6296 16.8191 12.2872C16.7165 12.7699 16.4269 13.1862 16.0106 13.4577C15.7089 13.6447 15.365 13.7473 15.0091 13.7473Z" fill="#00386C"/>
<path d="M12.9455 16.7459C12.7404 16.7459 12.5413 16.7037 12.3542 16.6192C12.2758 16.583 12.1974 16.5408 12.125 16.4925C11.9922 16.402 11.956 16.215 12.0465 16.0823C12.137 15.9495 12.3241 15.9133 12.4568 16.0038C12.499 16.034 12.5413 16.0581 12.5895 16.0762C12.8128 16.1788 13.0662 16.1728 13.3075 16.0762C13.5549 15.9737 13.7479 15.7746 13.8626 15.5212C13.8927 15.4548 13.9108 15.3884 13.9289 15.3221C13.9651 15.1652 14.122 15.0626 14.2849 15.0988C14.4418 15.135 14.5443 15.2979 14.5081 15.4548C14.484 15.5574 14.4538 15.6599 14.4056 15.7625C14.2306 16.1547 13.9229 16.4624 13.5368 16.6253C13.3497 16.7037 13.1446 16.7459 12.9455 16.7459Z" fill="#00386C"/>
<path d="M15.2202 17.7474C15.0633 17.7474 14.9306 17.6207 14.9246 17.4638C14.9246 17.3974 14.9185 17.3371 14.9004 17.2768C14.7978 16.776 14.3574 16.414 13.8084 16.3718C13.6455 16.3597 13.5188 16.2149 13.5369 16.052C13.5489 15.8891 13.6877 15.7684 13.8566 15.7805C14.6772 15.8408 15.3288 16.3899 15.4857 17.1501C15.5038 17.2466 15.5158 17.3371 15.5219 17.4397C15.5279 17.6026 15.4012 17.7413 15.2383 17.7474C15.2323 17.7474 15.2262 17.7474 15.2202 17.7474Z" fill="#00386C"/>
<path d="M17.5435 19.5454C17.3866 19.5454 17.2539 19.4187 17.2478 19.2618C17.2478 19.1954 17.2418 19.1351 17.2237 19.0748C17.1453 18.6705 16.8315 18.3508 16.4152 18.2241C16.2584 18.1758 16.1679 18.0129 16.2161 17.856C16.2644 17.6992 16.4273 17.6087 16.5842 17.6569C17.2177 17.844 17.6883 18.3387 17.8089 18.9541C17.827 19.0446 17.8391 19.1411 17.8451 19.2437C17.8512 19.4066 17.7245 19.5454 17.5616 19.5514C17.5555 19.5454 17.5495 19.5454 17.5435 19.5454Z" fill="#00386C"/>
<path d="M12.6203 18.0492C12.6022 18.0492 12.5841 18.0492 12.572 18.0432C11.5343 17.8682 10.7861 16.9753 10.7861 15.9255C10.7861 15.129 11.2205 14.399 11.9264 14.0249C12.0712 13.9465 12.2522 14.0008 12.3307 14.1456C12.4091 14.2904 12.3548 14.4714 12.21 14.5498C11.7032 14.8213 11.3834 15.3463 11.3834 15.9255C11.3834 16.6857 11.9264 17.3312 12.6746 17.4579C12.8375 17.4881 12.9461 17.6389 12.9159 17.8018C12.8857 17.9466 12.759 18.0492 12.6203 18.0492Z" fill="#00386C"/>
<path d="M13.6155 20.0824C13.5551 20.0824 13.4948 20.0824 13.4405 20.0764C13.2776 20.0704 13.1509 19.9256 13.1569 19.7627C13.163 19.5998 13.2957 19.4731 13.4707 19.4791C14.1826 19.5213 14.8704 19.286 15.4255 18.8396C16.3546 18.0914 16.7227 16.8305 16.3486 15.6962C16.2943 15.5393 16.3788 15.3704 16.5356 15.3221C16.6925 15.2678 16.8614 15.3523 16.9097 15.5092C17.3622 16.8727 16.9097 18.3991 15.7935 19.2981C15.1781 19.8109 14.4058 20.0824 13.6155 20.0824Z" fill="#00386C"/>
<path d="M12.9099 22.007C12.8857 22.007 12.8556 22.001 12.8314 21.9949C11.6248 21.6571 10.7861 20.5469 10.7861 19.298C10.7861 18.5197 11.118 17.7656 11.6911 17.2346C11.8118 17.126 11.9988 17.1321 12.1135 17.2527C12.2221 17.3734 12.216 17.5604 12.0954 17.6751C11.6429 18.0914 11.3834 18.6826 11.3834 19.298C11.3834 20.2875 12.0471 21.1623 12.9943 21.4278C13.1512 21.47 13.2477 21.6329 13.1995 21.7958C13.1572 21.9225 13.0366 22.007 12.9099 22.007Z" fill="#00386C"/>
<path d="M15.1963 23.2016C15.1722 23.2016 15.1541 23.2016 15.13 23.2016C14.9671 23.1955 14.8404 23.0568 14.8464 22.8939C14.8524 22.731 14.9852 22.6103 15.142 22.6103H15.1963C15.2506 22.6103 15.311 22.6043 15.3653 22.5982C16.2884 22.4776 16.94 21.6329 16.8193 20.7098C16.7952 20.5107 16.7348 20.3236 16.6443 20.1547C16.5659 20.0099 16.6262 19.8289 16.771 19.7565C16.9158 19.6781 17.0968 19.7384 17.1692 19.8832C17.2899 20.1185 17.3744 20.3719 17.4045 20.6374C17.5674 21.8802 16.6866 23.0266 15.4377 23.1895C15.3592 23.1955 15.2808 23.2016 15.1963 23.2016Z" fill="#00386C"/>
<path d="M14.5929 25.0236C13.338 25.0236 12.3184 24.004 12.3184 22.749C12.3184 21.7958 12.9157 20.933 13.8086 20.6072C13.9655 20.5529 14.1344 20.6313 14.1887 20.7821C14.243 20.939 14.1646 21.108 14.0137 21.1623C13.3561 21.4036 12.9096 22.0371 12.9096 22.743C12.9096 23.6721 13.6638 24.4263 14.5929 24.4263C14.8343 24.4263 15.0756 24.372 15.2988 24.2694C15.4497 24.2031 15.6246 24.2634 15.691 24.4142C15.7634 24.5651 15.697 24.74 15.5462 24.8064C15.2445 24.9512 14.9248 25.0236 14.5929 25.0236Z" fill="#00386C"/>
<path d="M17.0545 26.4595C15.9927 26.4595 15.1299 25.5967 15.1299 24.5348C15.1299 24.1487 15.2445 23.7746 15.4617 23.4549C15.5522 23.3221 15.7393 23.2859 15.872 23.3764C16.0108 23.4669 16.0409 23.654 15.9504 23.7867C15.7996 24.0039 15.7212 24.2633 15.7212 24.5288C15.7212 25.2649 16.3185 25.8622 17.0545 25.8622C17.7906 25.8622 18.3879 25.2649 18.3879 24.5288V9.16792C18.3879 8.70335 18.0078 8.32325 17.5432 8.32325C17.0787 8.32325 16.6986 8.70335 16.6986 9.16792C16.6986 9.34892 16.7529 9.52389 16.8615 9.66869C16.958 9.80142 16.9278 9.98846 16.7951 10.085C16.6624 10.1815 16.4753 10.1514 16.3788 10.0186C16.1978 9.77126 16.1013 9.47562 16.1013 9.16792C16.1013 8.37152 16.7468 7.72595 17.5432 7.72595C18.3396 7.72595 18.9852 8.37152 18.9852 9.16792V24.5348C18.9792 25.5967 18.1164 26.4595 17.0545 26.4595Z" fill="#00386C"/>
<path d="M19.4319 3.25534C19.269 3.25534 19.1362 3.12261 19.1362 2.95971V1.15574C19.1362 0.992841 19.269 0.860107 19.4319 0.860107C19.5948 0.860107 19.7275 0.992841 19.7275 1.15574V2.95368C19.7275 3.12261 19.5948 3.25534 19.4319 3.25534Z" fill="#00386C"/>
<path d="M26.3337 5.1016C26.2854 5.1016 26.2311 5.08953 26.1829 5.05937C26.0381 4.9749 25.9898 4.7939 26.0743 4.65513L26.9732 3.09853C27.0577 2.95373 27.2387 2.9115 27.3775 2.98993C27.5223 3.0744 27.5705 3.2554 27.4861 3.39417L26.5871 4.95077C26.5328 5.05334 26.4363 5.1016 26.3337 5.1016Z" fill="#00386C"/>
<path d="M31.3835 10.1575C31.2809 10.1575 31.1784 10.1032 31.1241 10.0066C31.0396 9.86183 31.0879 9.68083 31.2327 9.6024L32.7893 8.70343C32.9341 8.61896 33.1151 8.66723 33.1935 8.81203C33.278 8.95683 33.2297 9.13783 33.0849 9.21626L31.5283 10.1152C31.4861 10.1394 31.4318 10.1575 31.3835 10.1575Z" fill="#00386C"/>
<path d="M35.034 17.0535H33.2361C33.0732 17.0535 32.9404 16.9208 32.9404 16.7579C32.9404 16.595 33.0732 16.4623 33.2361 16.4623H35.034C35.1969 16.4623 35.3296 16.595 35.3296 16.7579C35.3296 16.9208 35.1969 17.0535 35.034 17.0535Z" fill="#00386C"/>
<path d="M12.5289 5.10148C12.4263 5.10148 12.3238 5.04718 12.2695 4.95064L11.3765 3.39404C11.2921 3.24924 11.3403 3.06824 11.4851 2.98981C11.6239 2.90534 11.8109 2.95361 11.8894 3.09841L12.7883 4.65501C12.8728 4.79981 12.8245 4.98081 12.6797 5.05924C12.6315 5.08941 12.5832 5.10148 12.5289 5.10148Z" fill="#00386C"/>
<path d="M7.47918 10.1575C7.43091 10.1575 7.37661 10.1454 7.32835 10.1152L5.77174 9.21627C5.62694 9.1318 5.57868 8.9508 5.66315 8.81203C5.74761 8.66723 5.92861 8.625 6.06738 8.70343L7.62398 9.6024C7.76878 9.68687 7.81705 9.86787 7.73258 10.0066C7.68431 10.1032 7.58175 10.1575 7.47918 10.1575Z" fill="#00386C"/>
<path d="M5.6333 17.0535H3.82933C3.66642 17.0535 3.53369 16.9208 3.53369 16.7579C3.53369 16.595 3.66642 16.4623 3.82933 16.4623H5.62726C5.79016 16.4623 5.9229 16.595 5.9229 16.7579C5.92893 16.9208 5.7962 17.0535 5.6333 17.0535Z" fill="#00386C"/>
<path d="M17.7722 28.6135C17.6395 28.6135 17.5128 28.523 17.4826 28.3842L16.9758 26.2243C16.9396 26.0674 17.0362 25.9045 17.1991 25.8683C17.362 25.8321 17.5188 25.9286 17.555 26.0915L18.0618 28.2515C18.098 28.4083 18.0015 28.5712 17.8386 28.6074C17.8145 28.6135 17.7903 28.6135 17.7722 28.6135Z" fill="#00386C"/>
<path d="M21.0908 28.6135C21.0667 28.6135 21.0426 28.6135 21.0245 28.6075C20.8676 28.5713 20.765 28.4084 20.8012 28.2515L21.308 26.0916C21.3442 25.9347 21.5011 25.8322 21.664 25.8684C21.8209 25.9046 21.9234 26.0675 21.8872 26.2243L21.3804 28.3843C21.3503 28.523 21.2296 28.6135 21.0908 28.6135Z" fill="#00386C"/>
</g>
<defs>
<clipPath id="clip0_517_3173">
<rect width="38.6134" height="38.6134" fill="white" transform="translate(0.124512 0.860107)"/>
</clipPath>
</defs>
</svg>
