<svg width="56" height="57" viewBox="0 0 56 57" fill="none" xmlns="http://www.w3.org/2000/svg">
<g clip-path="url(#clip0_558_3066)">
<path d="M48.79 19.8506L47.2937 18.8531C46.9087 18.5906 46.375 18.6956 46.1212 19.0893C45.8587 19.4743 45.9637 20.0081 46.3575 20.2706L49.6475 22.4668C49.7875 22.5631 49.9537 22.6068 50.12 22.6068C50.1812 22.6068 50.2512 22.5981 50.3125 22.5806C50.54 22.5281 50.7412 22.3793 50.855 22.1781L52.8062 18.7393C53.0337 18.3281 52.8937 17.8118 52.4825 17.5843C52.08 17.3568 51.555 17.4968 51.3275 17.8993L50.4437 19.4568C45.6225 3.06807 29.925 4.52057 29.7587 4.53807C29.295 4.59057 28.9537 5.00182 29.0062 5.47432C29.0587 5.93807 29.47 6.27932 29.9425 6.22682C30.5462 6.16557 44.3537 4.88807 48.79 19.8506Z" fill="#A0DAF5"/>
<path d="M27.9387 51.2193C27.3962 51.3068 15.2162 53.1793 10.3512 40.2293L11.5587 40.9381C11.9612 41.1743 12.4862 41.0343 12.7225 40.6318C12.9587 40.2293 12.8187 39.7043 12.4162 39.4681L9.32749 37.6656C9.12624 37.5518 8.88124 37.5168 8.65374 37.5868C8.42624 37.6568 8.24249 37.8143 8.13749 38.0243L6.56249 41.2356C6.36124 41.6556 6.52749 42.1631 6.95624 42.3731C7.07874 42.4343 7.20124 42.4606 7.33249 42.4606C7.64749 42.4606 7.94499 42.2856 8.09374 41.9881L8.72374 40.7106C12.7925 51.7093 21.9537 53.0306 26.11 53.0306C27.3875 53.0306 28.1925 52.9081 28.2275 52.8993C28.6912 52.8206 28.9975 52.3831 28.9275 51.9193C28.84 51.4556 28.4025 51.1406 27.9387 51.2193Z" fill="#A0DAF5"/>
<path d="M55.86 41.8307L53.55 36.642C53.5675 36.4932 53.5762 36.397 53.585 36.2045C53.76 32.7045 52.6487 29.6245 50.4525 27.5245C48.2562 25.4245 45.0887 24.4532 41.5362 24.7945C34.5975 25.4595 29.9337 30.1145 29.9337 36.362C29.9337 39.512 31.1062 43.0207 33.0662 45.742C34.3787 47.562 35.07 49.7757 35.07 52.147V55.5157C35.07 55.9882 35.4462 56.3645 35.9187 56.3645H48.2125C48.685 56.3645 49.0612 55.9882 49.0612 55.5157V49.4957C49.0612 49.382 49.1487 49.2945 49.2625 49.2945H51.275C52.7275 49.2945 53.9087 48.1132 53.9087 46.6607V43.887L54.7925 43.782C55.2475 43.7295 55.6412 43.4582 55.8512 43.047C56.0525 42.6445 56.0437 42.1632 55.86 41.8307ZM52.955 42.2945C52.5262 42.347 52.2112 42.7057 52.2112 43.1345V46.6695C52.2112 47.1857 51.7912 47.6057 51.275 47.6057H49.2625C48.2212 47.6057 47.3637 48.4545 47.3637 49.5045V54.6757H36.7675V52.1557C36.7675 49.4257 35.9625 46.8707 34.44 44.7532C32.6812 42.312 31.6312 39.1707 31.6312 36.362C31.6312 31.0332 35.6737 27.0607 41.7025 26.4832C44.7912 26.1857 47.4162 26.9732 49.28 28.7495C51.1087 30.4995 52.0362 33.1157 51.8875 36.187C51.8787 36.3445 51.8787 36.4057 51.8437 36.6332C51.8175 36.7907 51.8437 36.957 51.905 37.1057L54.1537 42.1545L52.955 42.2945Z" fill="#A0DAF5"/>
<path d="M13.8162 4.19692C14.2887 4.19692 14.665 3.82067 14.665 3.34817V1.63317C14.665 1.16067 14.2887 0.784424 13.8162 0.784424C13.3437 0.784424 12.9675 1.16067 12.9675 1.63317V3.34817C12.9675 3.81192 13.3437 4.19692 13.8162 4.19692Z" fill="#A0DAF5"/>
<path d="M5.25875 7.24201C5.425 7.40826 5.64375 7.48701 5.8625 7.48701C6.08125 7.48701 6.3 7.40826 6.46625 7.24201C6.79875 6.90951 6.79875 6.37576 6.46625 6.04326L5.24125 4.82701C4.9175 4.49451 4.375 4.49451 4.0425 4.82701C3.71 5.15951 3.71 5.69326 4.0425 6.02576L5.25875 7.24201Z" fill="#A0DAF5"/>
<path d="M2.56375 13.7432H0.84875C0.37625 13.7432 0 14.1282 0 14.5919C0 15.0557 0.37625 15.4407 0.84875 15.4407H2.56375C3.03625 15.4407 3.4125 15.0644 3.4125 14.5919C3.4125 14.1194 3.03625 13.7432 2.56375 13.7432Z" fill="#A0DAF5"/>
<path d="M6.4575 21.9508C6.125 21.6183 5.59125 21.6183 5.25875 21.9508L4.0425 23.167C3.71 23.4995 3.71 24.0333 4.0425 24.3658C4.20875 24.532 4.4275 24.6108 4.64625 24.6108C4.865 24.6108 5.08375 24.532 5.25 24.3658L6.46625 23.1495C6.79 22.817 6.79 22.2833 6.4575 21.9508Z" fill="#A0DAF5"/>
<path d="M22.365 21.9508C22.0325 21.6183 21.4987 21.6183 21.1662 21.9508C20.8337 22.2833 20.8337 22.817 21.1662 23.1495L22.3825 24.3658C22.5487 24.532 22.7675 24.6108 22.9862 24.6108C23.205 24.6108 23.4237 24.532 23.59 24.3658C23.9225 24.0333 23.9225 23.4995 23.59 23.167L22.365 21.9508Z" fill="#A0DAF5"/>
<path d="M25.06 15.4407H26.775C27.2475 15.4407 27.6237 15.0644 27.6237 14.5919C27.6237 14.1194 27.2475 13.7432 26.775 13.7432H25.06C24.5875 13.7432 24.2112 14.1194 24.2112 14.5919C24.2112 15.0644 24.5962 15.4407 25.06 15.4407Z" fill="#A0DAF5"/>
<path d="M21.77 7.48701C21.9888 7.48701 22.2075 7.40826 22.3738 7.24201L23.59 6.02576C23.9225 5.69326 23.9225 5.15951 23.59 4.82701C23.2575 4.49451 22.7238 4.49451 22.3913 4.82701L21.175 6.04326C20.8425 6.37576 20.8425 6.90951 21.175 7.24201C21.3325 7.40826 21.5513 7.48701 21.77 7.48701Z" fill="#A0DAF5"/>
<path d="M6.96501 20.3933C8.43501 22.1345 9.17876 23.342 9.26626 25.127C9.13501 25.2758 9.04751 25.4683 9.04751 25.687V29.747C9.04751 30.4208 9.49376 30.9895 10.1063 31.1908C10.4475 32.4683 11.6288 33.4133 13.0288 33.4133H14.5863C15.995 33.4133 17.1675 32.4683 17.5088 31.1908C18.1213 30.9808 18.5675 30.4208 18.5675 29.747V25.687C18.5675 25.4683 18.48 25.2758 18.3488 25.127C18.4363 23.342 19.18 22.1345 20.65 20.3933C21.8925 18.9233 22.6975 16.5783 22.6975 14.417C22.6975 9.59578 18.7075 5.67578 13.8075 5.67578C8.90751 5.67578 4.91751 9.59578 4.91751 14.417C4.91751 16.5783 5.72251 18.9233 6.96501 20.3933ZM16.8788 26.527V27.192H10.745V26.527H16.8788ZM16.8788 29.5808H10.745V28.8895H16.8788V29.5808ZM14.595 31.7158H13.0375C12.635 31.7158 12.285 31.5408 12.04 31.2783H15.6013C15.3475 31.5408 14.9888 31.7158 14.595 31.7158ZM13.8163 7.37328C17.78 7.37328 21.0088 10.532 21.0088 14.417C21.0088 16.1758 20.3438 18.1358 19.3638 19.2995C17.9988 20.9183 16.8613 22.4758 16.6775 24.8383H14.6563V18.2058H16.0038C16.4763 18.2058 16.8525 17.8295 16.8525 17.357C16.8525 16.8845 16.4763 16.5083 16.0038 16.5083H11.6025C11.13 16.5083 10.7538 16.8845 10.7538 17.357C10.7538 17.8295 11.13 18.2058 11.6025 18.2058H12.95V24.8383H10.9288C10.745 22.4758 9.60751 20.9183 8.24251 19.2995C7.26251 18.1358 6.59751 16.1758 6.59751 14.417C6.61501 10.532 9.84376 7.37328 13.8163 7.37328Z" fill="#A0DAF5"/>
</g>
<defs>
<clipPath id="clip0_558_3066">
<rect width="56" height="56" fill="white" transform="translate(0 0.574463)"/>
</clipPath>
</defs>
</svg>
