<svg width="56" height="57" viewBox="0 0 56 57" fill="none" xmlns="http://www.w3.org/2000/svg">
<path d="M49.6364 21.8714C47.3455 21.8714 45.4788 23.4836 45.1394 25.6048H32.6667C32.7515 25.1805 32.7515 24.7563 32.7515 24.4169C32.7515 23.9927 32.7515 23.6533 32.6667 23.229L45.9879 15.8472C46.6667 16.6957 47.6849 17.2896 48.9576 17.2896C50.994 17.2896 52.6061 15.6775 52.6061 13.6411C52.6061 11.6048 50.994 9.99266 48.9576 9.99266C46.9212 9.99266 45.3091 11.6048 45.3091 13.6411C45.3091 13.8957 45.3091 14.0654 45.394 14.3199L32.2424 21.5321C32.0727 21.023 31.8182 20.5139 31.5637 20.0896L36.0606 10.7563C36.3152 10.8411 36.6546 10.8411 36.9091 10.8411C38.9455 10.8411 40.5576 9.22903 40.5576 7.19266C40.5576 5.1563 38.9455 3.54418 36.9091 3.54418C34.8727 3.54418 33.2606 5.1563 33.2606 7.19266C33.2606 8.29569 33.7697 9.31387 34.6182 9.99266L30.5455 18.5624C29.1879 17.1199 27.3212 16.1018 25.2 15.9321V8.71993C26.8121 8.38054 28.0849 6.85327 28.0849 5.1563C28.0849 3.11993 26.4727 1.50781 24.4364 1.50781C22.4 1.50781 20.7879 3.11993 20.7879 5.1563C20.7879 6.85327 21.9758 8.29569 23.5879 8.71993V16.0169C22.6546 16.1018 21.8061 16.3563 20.9576 16.6957L15.0182 11.0108C15.3576 10.4169 15.6121 9.73812 15.6121 9.05933C15.6121 7.02296 14 5.41084 11.9637 5.41084C9.92729 5.41084 8.31517 7.02296 8.31517 9.05933C8.31517 11.0957 9.92729 12.7078 11.9637 12.7078C12.6424 12.7078 13.3212 12.5381 13.8303 12.1987L19.4303 17.629C17.9879 18.6472 16.8849 20.1745 16.2909 21.8714L10.5212 20.2593C10.5212 17.8836 8.56971 16.0169 6.2788 16.0169C3.98789 16.0169 2.03638 17.9684 2.03638 20.2593C2.03638 22.5502 3.98789 24.5018 6.2788 24.5018C8.06062 24.5018 9.58789 23.3987 10.1818 21.8714L15.9515 23.4836C15.9515 23.823 15.8667 24.0775 15.8667 24.4169C15.8667 25.1805 15.9515 26.029 16.2061 26.7078L16.1212 26.623L9.67274 32.9018C8.9091 32.3927 8.06062 32.1381 7.04244 32.1381C4.49698 32.1381 2.46062 34.1745 2.46062 36.7199C2.46062 39.2654 4.49698 41.3018 7.04244 41.3018C9.58789 41.3018 11.6243 39.2654 11.6243 36.7199C11.6243 35.7866 11.2849 34.8533 10.7758 34.0896L16.7152 28.3199C17.6485 30.1866 19.2606 31.629 21.2121 32.3927V46.8169L18.7515 44.3563C17.4788 43.0836 15.5273 43.2533 14.3394 44.526C13.3212 45.7139 13.4061 47.4957 14.594 48.6836L20.703 54.7927C21.297 55.3866 22.1455 55.8108 23.0788 55.8108H36.6546C38.5212 55.8108 39.9636 54.2836 39.9636 52.5018V38.5018C39.9636 36.8896 38.6061 35.5321 36.9939 35.5321C36.3152 35.5321 35.7212 35.7018 35.297 36.0411C34.7879 35.1927 33.8546 34.5987 32.7515 34.5987C32.0727 34.5987 31.4788 34.7684 31.0546 35.1078C30.5455 34.2593 29.6121 33.6654 28.5091 33.6654C28.0849 33.6654 27.5758 33.7502 27.2364 33.9199V32.223C29.6121 31.3745 31.394 29.5078 32.2424 27.1321H45.1394C45.5637 29.2533 47.4303 30.8654 49.6364 30.8654C52.1818 30.8654 54.2182 28.829 54.2182 26.2836C54.2182 23.9927 52.1818 21.8714 49.6364 21.8714ZM48.8727 11.6896C49.9758 11.6896 50.8243 12.5381 50.8243 13.6411C50.8243 14.7442 49.9758 15.5927 48.8727 15.5927C47.7697 15.5927 46.9212 14.7442 46.9212 13.6411C46.9212 12.5381 47.7697 11.6896 48.8727 11.6896ZM36.8243 5.24115C37.9273 5.24115 38.7758 6.08963 38.7758 7.19266C38.7758 8.29569 37.9273 9.14418 36.8243 9.14418C35.7212 9.14418 34.8727 8.29569 34.8727 7.19266C34.8727 6.08963 35.8061 5.24115 36.8243 5.24115ZM9.75759 8.97448C9.75759 7.87145 10.6061 7.02296 11.7091 7.02296C12.8121 7.02296 13.6606 7.87145 13.6606 8.97448C13.6606 10.0775 12.7273 10.926 11.7091 10.926C10.6909 11.0108 9.75759 10.0775 9.75759 8.97448ZM6.02426 22.8048C4.58183 22.8048 3.4788 21.6169 3.4788 20.2593C3.4788 18.8169 4.66668 17.7139 6.02426 17.7139C7.46668 17.7139 8.56971 18.9018 8.56971 20.2593C8.65456 21.6169 7.46668 22.8048 6.02426 22.8048ZM6.95759 39.6896C5.34547 39.6896 4.07274 38.4169 4.07274 36.8048C4.07274 35.1927 5.34547 33.9199 6.95759 33.9199C8.56971 33.9199 9.84244 35.1927 9.84244 36.8048C9.84244 38.4169 8.56971 39.6896 6.95759 39.6896ZM22.2303 5.07145C22.2303 3.96842 23.1637 3.11993 24.1818 3.11993C25.2849 3.11993 26.1333 4.05327 26.1333 5.07145C26.1333 6.08963 25.2849 7.02296 24.1818 7.02296C23.0788 7.10781 22.2303 6.17448 22.2303 5.07145ZM28.5091 35.4472C29.2727 35.4472 29.7818 36.126 29.7818 36.7199V37.5684C29.7818 38.0775 30.1212 38.4169 30.6303 38.4169C31.1394 38.4169 31.4788 38.0775 31.4788 37.5684C31.4788 36.8896 32.0727 36.2957 32.7515 36.2957C33.4303 36.2957 34.0243 36.8896 34.0243 37.5684V38.4169C34.0243 38.926 34.3636 39.2654 34.8727 39.2654C35.3818 39.2654 35.7212 38.926 35.7212 38.4169C35.7212 37.7381 36.3152 37.1442 36.9939 37.1442C37.7576 37.1442 38.2667 37.823 38.2667 38.4169V52.3321C38.2667 53.2654 37.503 53.9442 36.6546 53.9442H23.0788C22.6546 53.9442 22.2303 53.7745 21.8909 53.4351L15.7818 47.326C15.2727 46.8169 15.1879 45.9684 15.6121 45.4593C16.1212 44.8654 16.9697 44.8654 17.4788 45.3745L21.3818 49.2775C21.6364 49.5321 21.9758 49.6169 22.3152 49.4472C22.6546 49.2775 22.8243 49.023 22.8243 48.6836C22.8243 46.3078 22.8243 56.829 22.8243 27.3866C22.9091 25.5199 25.3697 25.6896 25.3697 27.3018V36.5502C25.3697 37.0593 25.7091 37.3987 26.2182 37.3987C26.7273 37.3987 27.0667 37.0593 27.0667 36.5502C27.1515 36.0411 27.7455 35.4472 28.5091 35.4472ZM27.1515 30.526C27.1515 29.7624 27.1515 27.8957 27.1515 27.4715C27.0667 23.6533 21.2121 23.5684 21.2121 27.6411V30.526C18.9212 29.423 17.394 27.0472 17.394 24.4169C17.394 20.6836 20.4485 17.629 24.1818 17.629C27.9152 17.629 30.9697 20.6836 30.9697 24.4169C31.0546 27.0472 29.5273 29.423 27.1515 30.526ZM49.6364 29.423C48.0243 29.423 46.7515 28.1502 46.7515 26.5381C46.7515 24.926 48.0243 23.6533 49.6364 23.6533C51.2485 23.6533 52.5212 24.926 52.5212 26.5381C52.5212 28.1502 51.2485 29.423 49.6364 29.423Z" fill="#A0DAF5"/>
</svg>
