<svg width="56" height="57" viewBox="0 0 56 57" fill="none" xmlns="http://www.w3.org/2000/svg">
<g clip-path="url(#clip0_558_2146)">
<path d="M20.125 56.5746H4.375C2.93125 56.5746 1.75 55.3933 1.75 53.9496C1.75 48.1396 5.285 45.1996 12.25 45.1996C19.215 45.1996 22.75 48.1396 22.75 53.9496C22.75 55.3933 21.5688 56.5746 20.125 56.5746ZM12.25 46.9496C6.2825 46.9496 3.5 49.1721 3.5 53.9496C3.5 54.4308 3.89375 54.8246 4.375 54.8246H20.125C20.6063 54.8246 21 54.4308 21 53.9496C21 49.1721 18.2175 46.9496 12.25 46.9496Z" fill="#A0DAF5"/>
<path d="M12.25 44.3246C9.35375 44.3246 7 41.9708 7 39.0746C7 36.1783 9.35375 33.8246 12.25 33.8246C15.1462 33.8246 17.5 36.1783 17.5 39.0746C17.5 41.9708 15.1462 44.3246 12.25 44.3246ZM12.25 35.5746C10.3162 35.5746 8.75 37.1408 8.75 39.0746C8.75 41.0083 10.3162 42.5746 12.25 42.5746C14.1838 42.5746 15.75 41.0083 15.75 39.0746C15.75 37.1408 14.1838 35.5746 12.25 35.5746Z" fill="#A0DAF5"/>
<path d="M38.5 48.6996H25.375C24.8937 48.6996 24.5 48.3058 24.5 47.8246C24.5 47.3433 24.8937 46.9496 25.375 46.9496H38.5C43.3213 46.9496 47.25 43.0208 47.25 38.1996C47.25 33.3783 43.3213 29.4496 38.5 29.4496H15.75C11.8913 29.4496 8.75 26.3083 8.75 22.4496C8.75 18.5908 11.8913 15.4496 15.75 15.4496H36.75C37.2313 15.4496 37.625 15.8433 37.625 16.3246C37.625 16.8058 37.2313 17.1996 36.75 17.1996H15.75C12.8538 17.1996 10.5 19.5533 10.5 22.4496C10.5 25.3458 12.8538 27.6996 15.75 27.6996H38.5C44.2925 27.6996 49 32.4071 49 38.1996C49 43.9921 44.2925 48.6996 38.5 48.6996Z" fill="#A0DAF5"/>
<path d="M45.5 25.0746C45.22 25.0746 44.9663 24.9433 44.8 24.7246C43.9775 23.6221 36.75 13.8396 36.75 9.32458C36.75 4.50333 40.6787 0.574585 45.5 0.574585C50.3212 0.574585 54.25 4.50333 54.25 9.32458C54.25 13.8308 47.0225 23.6221 46.2 24.7246C46.0337 24.9433 45.7712 25.0746 45.5 25.0746ZM45.5 2.32458C41.6413 2.32458 38.5 5.46584 38.5 9.32458C38.5 12.3346 43.05 19.2908 45.5 22.7208C47.95 19.2996 52.5 12.3346 52.5 9.32458C52.5 5.46584 49.3587 2.32458 45.5 2.32458Z" fill="#A0DAF5"/>
<path d="M45.5 13.6996C43.085 13.6996 41.125 11.7396 41.125 9.32458C41.125 6.90958 43.085 4.94958 45.5 4.94958C47.915 4.94958 49.875 6.90958 49.875 9.32458C49.875 11.7396 47.915 13.6996 45.5 13.6996ZM45.5 6.69958C44.0563 6.69958 42.875 7.88084 42.875 9.32458C42.875 10.7683 44.0563 11.9496 45.5 11.9496C46.9437 11.9496 48.125 10.7683 48.125 9.32458C48.125 7.88084 46.9437 6.69958 45.5 6.69958Z" fill="#A0DAF5"/>
</g>
<defs>
<clipPath id="clip0_558_2146">
<rect width="56" height="56" fill="white" transform="translate(0 0.574585)"/>
</clipPath>
</defs>
</svg>
