<svg width="56" height="57" viewBox="0 0 56 57" fill="none" xmlns="http://www.w3.org/2000/svg">
<path d="M2.31615 50.9055C1.9644 51.0498 1.74565 51.4042 1.7754 51.7831C1.80515 52.1628 2.0764 52.4787 2.44653 52.5671C2.7274 52.6336 9.27415 54.1368 15.2793 51.4663C19.1774 53.6355 23.5655 54.78 28 54.78C42.4612 54.78 54.2273 43.0147 54.2273 28.5527C54.2273 14.0907 42.4612 2.32458 28 2.32458C13.5389 2.32458 1.77278 14.0898 1.77278 28.5518C1.77278 34.823 4.03028 40.8692 8.14103 45.6406C6.95628 48.0381 4.99803 49.8073 2.31615 50.9055ZM3.52278 28.5518C3.52278 15.055 14.5032 4.07458 28 4.07458C41.4969 4.07458 52.4773 15.055 52.4773 28.5518C52.4773 42.0487 41.4969 53.0291 28 53.0291C23.7213 53.0291 19.488 51.8863 15.7588 49.726C15.624 49.6472 15.4727 49.6078 15.3204 49.6078C15.1918 49.6078 15.0614 49.6367 14.9415 49.6945C11.5824 51.3071 7.87765 51.3998 5.46878 51.2213C7.4909 49.8861 9.00203 48.0845 9.97765 45.841C10.1142 45.5268 10.0547 45.1611 9.8254 44.9065C5.76103 40.3923 3.52278 34.5841 3.52278 28.5536V28.5518Z" fill="#A0DAF5"/>
<path d="M28 35.1503C32.0574 35.1503 35.3579 31.8498 35.3579 27.7924V19.5928C35.3579 15.5354 32.0574 12.234 28 12.234C23.9427 12.234 20.6422 15.5345 20.6422 19.5928V27.7924C20.6422 31.8498 23.9427 35.1503 28 35.1503ZM22.3922 19.5928C22.3922 16.5005 24.9078 13.984 28 13.984C31.0923 13.984 33.6079 16.4996 33.6079 19.5928V27.7924C33.6079 30.8846 31.0923 33.4003 28 33.4003C24.9078 33.4003 22.3922 30.8846 22.3922 27.7924V19.5928Z" fill="#A0DAF5"/>
<path d="M27.125 38.5093V43.1643H23.597C23.1131 43.1643 22.722 43.5563 22.722 44.0393C22.722 44.5223 23.1131 44.9143 23.597 44.9143H32.403C32.8869 44.9143 33.278 44.5223 33.278 44.0393C33.278 43.5563 32.8869 43.1643 32.403 43.1643H28.875V38.5093C34.3105 38.0622 38.5989 33.5035 38.5989 27.9542C38.5989 27.4712 38.2077 27.0792 37.7239 27.0792C37.24 27.0792 36.8489 27.4712 36.8489 27.9542C36.8489 32.8323 32.8816 36.8005 28.0052 36.8031C28.0035 36.8031 28.0017 36.8022 28 36.8022C27.9982 36.8022 27.9965 36.8031 27.9947 36.8031C23.1184 36.8005 19.1511 32.8315 19.1511 27.9542C19.1511 27.4712 18.76 27.0792 18.2761 27.0792C17.7922 27.0792 17.4011 27.4712 17.4011 27.9542C17.4011 33.5035 21.6895 38.0622 27.125 38.5093Z" fill="#A0DAF5"/>
</svg>
