<svg width="56" height="57" viewBox="0 0 56 57" fill="none" xmlns="http://www.w3.org/2000/svg">
<path d="M46.9009 32.8932L45.3692 32.6497C45.2854 32.4148 45.1897 32.1844 45.0826 31.9592L45.987 30.7211C46.1105 30.552 46.1692 30.3443 46.1526 30.1356C46.136 29.927 46.0451 29.7312 45.8965 29.5838L43.876 27.5791C43.729 27.4337 43.5353 27.3449 43.3291 27.3285C43.1229 27.3121 42.9176 27.3691 42.7494 27.4894L41.492 28.3926C41.2619 28.2845 41.0265 28.1881 40.7866 28.1038L40.5427 26.5896C40.5095 26.3843 40.4044 26.1976 40.2461 26.0628C40.0878 25.928 39.8867 25.8539 39.6788 25.8539H36.8214C36.6134 25.8539 36.4123 25.928 36.254 26.0628C36.0957 26.1976 35.9906 26.3843 35.9575 26.5896L35.7135 28.1038C35.4735 28.1881 35.238 28.2845 35.0077 28.3926L33.7507 27.4894C33.5827 27.3687 33.3772 27.3114 33.171 27.3279C32.9647 27.3443 32.7709 27.4333 32.6241 27.5791L30.6032 29.5837C30.4546 29.7311 30.3637 29.9269 30.3471 30.1356C30.3305 30.3443 30.3892 30.552 30.5126 30.7211L31.4175 31.9592C31.3104 32.1843 31.2147 32.4148 31.1309 32.6496L29.5992 32.8931C29.3935 32.9257 29.2061 33.0305 29.0708 33.1889C28.9356 33.3473 28.8613 33.5487 28.8613 33.757V36.5914C28.8612 36.7997 28.9355 37.0012 29.0708 37.1596C29.206 37.3179 29.3934 37.4228 29.5992 37.4553L31.1309 37.6979C31.2147 37.9328 31.3104 38.1632 31.4175 38.3884L30.5126 39.6274C30.3892 39.7964 30.3304 40.0042 30.3471 40.2128C30.3637 40.4215 30.4546 40.6173 30.6032 40.7647L32.6241 42.7685C32.771 42.914 32.9648 43.0029 33.171 43.0194C33.3772 43.0358 33.5826 42.9787 33.7507 42.8582L35.0072 41.955C35.2375 42.0637 35.4732 42.1604 35.7135 42.2447L35.9574 43.758C35.9906 43.9632 36.0957 44.15 36.254 44.2848C36.4123 44.4196 36.6134 44.4936 36.8213 44.4937H39.6787C39.8867 44.4936 40.0878 44.4196 40.2461 44.2848C40.4043 44.15 40.5095 43.9632 40.5426 43.758L40.7866 42.2447C41.0269 42.1604 41.2626 42.0637 41.4928 41.955L42.7493 42.8582C42.9176 42.9785 43.1229 43.0354 43.329 43.019C43.5352 43.0026 43.7289 42.9139 43.876 42.7685L45.8964 40.7647C46.0451 40.6173 46.136 40.4215 46.1526 40.2128C46.1692 40.0042 46.1104 39.7964 45.987 39.6274L45.0825 38.3884C45.1896 38.1632 45.2853 37.9328 45.3692 37.6979L46.9009 37.4553C47.1066 37.4228 47.294 37.3179 47.4293 37.1596C47.5646 37.0012 47.6389 36.7997 47.6387 36.5914V33.7571C47.6388 33.5488 47.5645 33.3473 47.4292 33.189C47.294 33.0306 47.1066 32.9257 46.9009 32.8932ZM45.8888 35.8437C45.2604 36.0071 44.042 35.8751 43.8547 36.6871C43.7657 37.4774 42.8262 38.2079 43.3479 38.9806L44.1302 40.0521L43.1693 41.0049L42.0777 40.2205C41.3041 39.7125 40.5753 40.6376 39.7813 40.7253C38.9679 40.9091 39.0958 42.1267 38.9336 42.7437H37.5665L37.355 41.4312C37.1763 40.5216 35.9743 40.6577 35.3653 40.1708C34.6903 39.7235 33.8531 40.699 33.3307 41.0048L32.3699 40.0521L33.1522 38.9806C33.6729 38.2084 32.7361 37.4768 32.6451 36.6862C32.6004 36.5242 32.51 36.3785 32.3846 36.2665C32.2593 36.1546 32.1044 36.081 31.9384 36.0548L30.6113 35.8446V34.5039C31.2386 34.3408 32.4572 34.4722 32.6446 33.6614C32.7356 32.8699 33.6737 32.1397 33.1522 31.3671L32.3699 30.2964L33.3307 29.3428C33.8571 29.6527 34.6916 30.6227 35.3644 30.1776C35.9741 29.6888 37.1764 29.8284 37.3551 28.9173L37.5665 27.6039H38.9337C39.0948 28.224 38.9714 29.4433 39.7813 29.6231C40.5739 29.708 41.3048 30.6367 42.0778 30.1273L43.1694 29.3428L44.1303 30.2964L43.348 31.3671C42.8274 32.1388 43.7636 32.8705 43.8546 33.6606C44.0459 34.4758 45.263 34.3396 45.8889 34.504L45.8888 35.8437Z" fill="#A0DAF5"/>
<path d="M38.245 30.3741C31.8713 30.5763 31.8728 39.7808 38.2451 39.9821C44.6181 39.78 44.6167 30.5752 38.245 30.3741ZM38.245 38.2321C37.4377 38.2279 36.6649 37.9044 36.0955 37.3321C35.5262 36.7598 35.2066 35.9853 35.2066 35.1781C35.2066 34.3708 35.5262 33.5963 36.0956 33.0241C36.665 32.4518 37.4378 32.1282 38.2451 32.1241C39.0524 32.1283 39.8252 32.4518 40.3945 33.0241C40.9639 33.5964 41.2835 34.3709 41.2835 35.1781C41.2835 35.9854 40.9639 36.7599 40.3945 37.3321C39.8251 37.9044 39.0523 38.228 38.245 38.2321Z" fill="#A0DAF5"/>
<path d="M23.3885 26.5942C23.4189 25.4219 23.117 23.7103 24.1841 22.8575C24.9771 22.1205 25.6089 21.2272 26.0395 20.2339C26.4702 19.2406 26.6905 18.1689 26.6864 17.0863C26.6812 16.0207 26.4623 14.967 26.0425 13.9875C25.6228 13.0081 25.0107 12.1228 24.2426 11.3842C23.4746 10.6456 22.5661 10.0686 21.571 9.68746C20.5759 9.3063 19.5144 9.1287 18.4494 9.16519C11.514 9.3983 8.2269 18.1184 13.321 22.8456C14.4027 23.7118 14.103 25.4151 14.1347 26.5976C14.1343 27.1693 14.3228 27.725 14.6709 28.1785C15.019 28.6319 15.5072 28.9576 16.0595 29.1048V29.69C16.0601 30.217 16.2697 30.7222 16.6423 31.0948C17.0149 31.4674 17.5201 31.677 18.047 31.6776H19.474C20.001 31.677 20.5062 31.4675 20.8788 31.0948C21.2515 30.7222 21.461 30.217 21.4616 29.69V29.1057C22.015 28.9585 22.5041 28.6324 22.8527 28.1781C23.2013 27.7237 23.3897 27.1668 23.3885 26.5942ZM12.586 16.8581C12.6673 15.2679 13.3505 13.7682 14.4971 12.6634C15.6436 11.5586 17.1676 10.9314 18.7597 10.9091C24.2574 10.8205 27.0685 17.8794 22.9863 21.5818C22.2056 22.3155 21.7323 23.318 21.6618 24.387H19.6342L19.6355 20.6666L22.4891 16.7402C22.6247 16.5524 22.6803 16.3185 22.6438 16.0897C22.6072 15.861 22.4814 15.6561 22.294 15.5199C22.1066 15.3838 21.8729 15.3275 21.6441 15.3633C21.4152 15.3992 21.21 15.5244 21.0732 15.7113L18.7913 18.8516L16.7166 15.7404C16.5872 15.549 16.3873 15.4165 16.1605 15.372C15.9338 15.3274 15.6986 15.3743 15.5064 15.5025C15.3141 15.6307 15.1803 15.8297 15.1343 16.0561C15.0882 16.2826 15.1336 16.518 15.2605 16.7111L17.8855 20.6469L17.8842 24.387H15.8588C15.7891 23.3122 15.3104 22.305 14.521 21.5723C13.8816 20.9694 13.3783 20.2371 13.0446 19.4241C12.7109 18.6111 12.5545 17.7363 12.586 16.8581ZM19.7116 29.6899C19.7115 29.7529 19.6865 29.8133 19.6419 29.8578C19.5974 29.9024 19.537 29.9274 19.474 29.9275H18.047C17.7037 29.9362 17.8323 29.407 17.8095 29.2063H19.7116L19.7116 29.6899ZM21.3881 27.2042C21.2817 27.3033 21.1545 27.3773 21.0159 27.4209C20.8772 27.4645 20.7305 27.4766 20.5866 27.4563H16.9345C16.8079 27.4785 16.6779 27.4731 16.5535 27.4406C16.4292 27.408 16.3132 27.3491 16.2136 27.2678C16.114 27.1865 16.0331 27.0847 15.9764 26.9693C15.9196 26.854 15.8884 26.7277 15.8848 26.5992L15.8852 26.1369C17.3187 26.1373 20.204 26.1367 21.6374 26.1369C21.6384 26.4878 21.685 26.949 21.3881 27.2042Z" fill="#A0DAF5"/>
<path d="M38.1689 20.2957C36.7557 20.2959 35.3504 20.5058 33.9988 20.9187C34.0051 20.7395 34.0161 20.5636 34.0161 20.3803C33.1837 0.147936 4.33911 0.133972 3.50004 20.3804C3.4949 22.5793 3.96778 24.753 4.88595 26.751C5.80412 28.7491 7.14562 30.5236 8.81755 31.9518V38.0478C8.81962 38.2046 8.86348 38.358 8.9446 38.4922C9.02573 38.6264 9.14119 38.7365 9.27907 38.8112C9.41694 38.8859 9.57226 38.9225 9.72898 38.9172C9.88571 38.9118 10.0382 38.8648 10.1707 38.7809L15.5313 35.2818C18.2956 35.9008 21.1789 35.7209 23.8448 34.763C23.857 36.8906 24.3447 38.9886 25.2721 40.9035C26.1994 42.8184 27.5431 44.5018 29.2048 45.8306C30.8665 47.1594 32.8042 48.0999 34.8761 48.5835C36.9481 49.0671 39.1019 49.0815 41.1802 48.6255L46.1695 51.8871C46.302 51.9712 46.4545 52.0184 46.6113 52.0239C46.768 52.0294 46.9235 51.9929 47.0614 51.9183C47.1994 51.8437 47.315 51.7335 47.3962 51.5993C47.4774 51.4651 47.5214 51.3116 47.5235 51.1548V45.4775C57.53 36.8914 51.3685 20.2906 38.1689 20.2957ZM15.5693 33.4951C15.4534 33.4678 15.3331 33.4641 15.2157 33.4844C15.0983 33.5047 14.9862 33.5484 14.8862 33.613L10.5675 36.432V31.5417C10.5675 31.4113 10.5384 31.2826 10.4823 31.1649C10.4262 31.0473 10.3445 30.9436 10.2433 30.8615C0.425931 22.9241 6.12465 6.87215 18.7585 6.8717C20.6348 6.87587 22.4897 7.27033 24.2054 8.03C25.9211 8.78966 27.46 9.89793 28.7243 11.2844C29.9886 12.6708 30.9506 14.3051 31.5493 16.0833C32.148 17.8616 32.3702 19.745 32.2018 21.6137C29.989 22.6311 28.0716 24.1949 26.6301 26.1579C25.1886 28.1209 24.2705 30.4186 23.9622 32.8344C21.3115 33.964 18.3641 34.196 15.5693 33.4951ZM46.0965 44.3898C45.9956 44.472 45.9143 44.5756 45.8585 44.6931C45.8026 44.8106 45.7736 44.939 45.7735 45.0691V49.5373L41.8261 46.9567C41.6838 46.8635 41.5173 46.8139 41.3472 46.814C39.6172 47.2645 37.811 47.3414 36.049 47.0394C34.2869 46.7374 32.6094 46.0635 31.1281 45.0627C29.6468 44.0618 28.3957 42.7569 27.4581 41.2348C26.5204 39.7126 25.9178 38.0082 25.6902 36.235C25.4627 34.4618 25.6155 32.6605 26.1384 30.951C26.6614 29.2414 27.5425 27.6629 28.7231 26.3204C29.9037 24.978 31.3567 23.9024 32.9854 23.1653C34.6141 22.4283 36.3812 22.0466 38.1689 22.0457C49.9395 22.0544 55.2414 36.9821 46.0965 44.3898Z" fill="#A0DAF5"/>
</svg>
