<svg width="52" height="55" viewBox="0 0 52 55" fill="none" xmlns="http://www.w3.org/2000/svg">
<path d="M34.5137 54.4808H17.4862C17.2031 54.4808 16.9316 54.3683 16.7314 54.1681C16.5312 53.9679 16.4187 53.6964 16.4187 53.4133V51.1995C16.4176 51.0586 16.4443 50.9188 16.4975 50.7883C16.5506 50.6578 16.629 50.5391 16.7283 50.439C16.8275 50.339 16.9456 50.2595 17.0757 50.2053C17.2058 50.1511 17.3453 50.1232 17.4862 50.1233H21.7037V47.6995H21.1437C20.9419 47.7007 20.7419 47.6619 20.5551 47.5855C20.3683 47.509 20.1984 47.3964 20.0553 47.2541C19.9122 47.1118 19.7986 46.9426 19.7211 46.7563C19.6436 46.5699 19.6037 46.3701 19.6037 46.1683V44.0333H2.50623C1.90054 44.0333 1.31966 43.7926 0.891376 43.3644C0.46309 42.9361 0.222481 42.3552 0.222481 41.7495V11.4395C0.220171 11.1462 0.275953 10.8553 0.386609 10.5836C0.497266 10.3119 0.660608 10.0649 0.867216 9.85663C1.07383 9.6484 1.31961 9.48312 1.59041 9.37034C1.8612 9.25755 2.15164 9.19949 2.44498 9.1995H16.8125C17.9675 -2.13175 34.0412 -2.123 35.1875 9.1995H49.555C50.1444 9.1995 50.7097 9.43366 51.1265 9.85046C51.5433 10.2673 51.7775 10.8326 51.7775 11.422V41.7495C51.7775 42.3552 51.5369 42.9361 51.1086 43.3644C50.6803 43.7926 50.0994 44.0333 49.4937 44.0333H32.3962V46.1945C32.3893 46.5976 32.2238 46.9817 31.9354 47.2634C31.6471 47.5452 31.2593 47.7019 30.8562 47.6995H30.2962V50.0795H34.5137C34.6621 50.0732 34.8101 50.098 34.9484 50.1522C35.0866 50.2063 35.212 50.2888 35.3166 50.3942C35.4212 50.4996 35.5026 50.6256 35.5557 50.7643C35.6088 50.903 35.6324 51.0512 35.625 51.1995V53.4308C35.6228 53.5732 35.5921 53.7138 35.5347 53.8442C35.4773 53.9746 35.3943 54.0922 35.2908 54.1901C35.1872 54.2879 35.0651 54.3641 34.9316 54.414C34.7982 54.4639 34.6561 54.4866 34.5137 54.4808ZM17.7312 53.1683H34.2687V51.4183H17.7312V53.1683ZM22.9812 50.1058H28.9487V47.6995H23.0162L22.9812 50.1058ZM29.605 46.4133H30.8212C30.8507 46.4144 30.8801 46.4096 30.9076 46.3992C30.9352 46.3887 30.9603 46.3728 30.9816 46.3524C31.0028 46.3319 31.0197 46.3074 31.0313 46.2803C31.0428 46.2532 31.0488 46.224 31.0487 46.1945V44.0333H20.9162V46.1945C20.9162 46.224 20.9221 46.2532 20.9337 46.2803C20.9452 46.3074 20.9621 46.3319 20.9834 46.3524C21.0046 46.3728 21.0298 46.3887 21.0573 46.3992C21.0849 46.4096 21.1143 46.4144 21.1437 46.4133H29.605ZM31.705 42.7208H49.4937C49.6242 42.7255 49.7543 42.7038 49.8762 42.6571C49.9981 42.6104 50.1093 42.5396 50.2032 42.449C50.2972 42.3583 50.3719 42.2496 50.4229 42.1294C50.4738 42.0093 50.5001 41.8801 50.5 41.7495V38.6958H1.49998V41.7495C1.49998 42.0071 1.60231 42.2541 1.78445 42.4363C1.9666 42.6184 2.21364 42.7208 2.47123 42.7208H31.705ZM1.49998 37.3745H50.5V11.4395C50.5 11.2074 50.4078 10.9849 50.2437 10.8208C50.0796 10.6567 49.857 10.5645 49.625 10.5645H35.1875C35.0167 12.7703 34.063 14.8424 32.4986 16.4068C30.9342 17.9713 28.8621 18.9249 26.6562 19.0958V21.362H41.645C41.8183 21.3643 41.9839 21.4341 42.1065 21.5567C42.2291 21.6793 42.299 21.8449 42.3012 22.0183V24.9495C48.0675 25.8858 47.5512 34.2595 41.645 34.3995C35.7562 34.2595 35.2225 25.8858 40.9887 24.9495V22.6395H26.6562V24.9495C32.4225 25.8858 31.9062 34.2595 26 34.3995C20.1112 34.2595 19.5775 25.8858 25.3437 24.9495V22.6395H11.125V25.2645C16.8912 26.192 16.375 34.5658 10.4687 34.7145C4.57998 34.5658 4.03748 26.192 9.81248 25.2645V21.9833C9.81248 21.8092 9.88162 21.6423 10.0047 21.5192C10.1278 21.3961 10.2947 21.327 10.4687 21.327H25.3437V19.0608C23.1379 18.8899 21.0658 17.9363 19.5014 16.3719C17.937 14.8074 16.9833 12.7353 16.8125 10.5295H2.44498C2.21292 10.5295 1.99036 10.6217 1.82626 10.7858C1.66217 10.9499 1.56998 11.1724 1.56998 11.4045L1.49998 37.3745ZM10.5037 26.5245C9.62286 26.569 8.79276 26.9502 8.18502 27.5894C7.57728 28.2286 7.23839 29.0769 7.23839 29.9589C7.23839 30.8409 7.57728 31.6891 8.18502 32.3283C8.79276 32.9675 9.62286 33.3488 10.5037 33.3933C11.3846 33.3488 12.2147 32.9675 12.8224 32.3283C13.4302 31.6891 13.7691 30.8409 13.7691 29.9589C13.7691 29.0769 13.4302 28.2286 12.8224 27.5894C12.2147 26.9502 11.3846 26.569 10.5037 26.5245ZM41.645 26.2008C40.7641 26.2452 39.934 26.6265 39.3263 27.2657C38.7185 27.9049 38.3796 28.7531 38.3796 29.6351C38.3796 30.5171 38.7185 31.3654 39.3263 32.0046C39.934 32.6438 40.7641 33.025 41.645 33.0695C42.5259 33.025 43.356 32.6438 43.9637 32.0046C44.5714 31.3654 44.9103 30.5171 44.9103 29.6351C44.9103 28.7531 44.5714 27.9049 43.9637 27.2657C43.356 26.6265 42.5259 26.2452 41.645 26.2008ZM26 26.2008C25.1191 26.2452 24.289 26.6265 23.6813 27.2657C23.0735 27.9049 22.7346 28.7531 22.7346 29.6351C22.7346 30.5171 23.0735 31.3654 23.6813 32.0046C24.289 32.6438 25.1191 33.025 26 33.0695C26.8809 33.025 27.711 32.6438 28.3187 32.0046C28.9264 31.3654 29.2653 30.5171 29.2653 29.6351C29.2653 28.7531 28.9264 27.9049 28.3187 27.2657C27.711 26.6265 26.8809 26.2452 26 26.2008ZM26 17.7658C27.7149 17.7759 29.3862 17.2259 30.76 16.1995C30.8436 15.3331 30.6889 14.4603 30.3127 13.6753C29.9364 12.8904 29.3528 12.2232 28.625 11.7458C27.9056 12.4244 26.954 12.8025 25.965 12.8025C24.976 12.8025 24.0244 12.4244 23.305 11.7458C22.59 12.2318 22.0203 12.9028 21.6567 13.6871C21.293 14.4714 21.149 15.3398 21.24 16.1995C22.6138 17.2259 24.2851 17.7759 26 17.7658ZM26 2.01575C24.5018 2.026 23.0373 2.46105 21.7765 3.27038C20.5156 4.07971 19.5103 5.23011 18.8772 6.58798C18.2441 7.94585 18.0091 9.45547 18.1997 10.9415C18.3903 12.4276 18.9985 13.8291 19.9537 14.9833C20.0666 14.1282 20.3588 13.3066 20.8111 12.5723C21.2635 11.8379 21.8658 11.2074 22.5787 10.722C22.2829 10.1337 22.1426 9.47949 22.1711 8.82162C22.1996 8.16376 22.396 7.52413 22.7415 6.96361C23.0871 6.40308 23.5703 5.94031 24.1453 5.61933C24.7202 5.29835 25.3678 5.12985 26.0262 5.12985C26.6847 5.12985 27.3322 5.29835 27.9072 5.61933C28.4821 5.94031 28.9654 6.40308 29.3109 6.96361C29.6565 7.52413 29.8529 8.16376 29.8814 8.82162C29.9099 9.47949 29.7695 10.1337 29.4737 10.722C30.1866 11.2074 30.789 11.8379 31.2413 12.5723C31.6937 13.3066 31.9859 14.1282 32.0987 14.9833C33.0675 13.8263 33.6855 12.4166 33.88 10.9202C34.0746 9.42377 33.8375 7.90293 33.1966 6.53674C32.5558 5.17055 31.538 4.0159 30.263 3.20874C28.988 2.40159 27.509 1.97554 26 1.98075V2.01575ZM26 11.492C26.673 11.492 27.3184 11.2247 27.7943 10.7488C28.2701 10.2729 28.5375 9.62749 28.5375 8.9545C28.5375 8.28152 28.2701 7.63609 27.7943 7.16022C27.3184 6.68435 26.673 6.417 26 6.417C25.327 6.417 24.6816 6.68435 24.2057 7.16022C23.7298 7.63609 23.4625 8.28152 23.4625 8.9545C23.4625 9.62749 23.7298 10.2729 24.2057 10.7488C24.6816 11.2247 25.327 11.492 26 11.492ZM27.1112 41.3645H24.9325C24.7584 41.3645 24.5915 41.2954 24.4684 41.1723C24.3454 41.0492 24.2762 40.8823 24.2762 40.7083C24.2762 40.5342 24.3454 40.3673 24.4684 40.2442C24.5915 40.1211 24.7584 40.052 24.9325 40.052H27.0675C27.2415 40.052 27.4085 40.1211 27.5315 40.2442C27.6546 40.3673 27.7237 40.5342 27.7237 40.7083C27.7237 40.8823 27.6546 41.0492 27.5315 41.1723C27.4085 41.2954 27.2415 41.3645 27.0675 41.3645H27.1112Z" fill="#A0DAF5"/>
</svg>
