<svg width="22" height="22" viewBox="0 0 22 22" fill="none" xmlns="http://www.w3.org/2000/svg">
<path d="M1.00006 11.2974C1.00006 16.8204 5.47706 21.2974 11.0001 21.2974C16.5231 21.2974 21.0001 16.8204 21.0001 11.2974C21.0001 5.77436 16.5231 1.29736 11.0001 1.29736C5.47706 1.29736 1.00006 5.77436 1.00006 11.2974Z" stroke="#00386C" stroke-linecap="round" stroke-linejoin="round"/>
<path d="M12 1.34766C12 1.34766 15 5.29766 15 11.2977C15 17.2977 12 21.2477 12 21.2477M10 21.2477C10 21.2477 7.00001 17.2977 7.00001 11.2977C7.00001 5.29766 10 1.34766 10 1.34766M1.63 14.7977H20.37M1.63 7.79766H20.37" stroke="#00386C" stroke-linecap="round" stroke-linejoin="round"/>
</svg>
