<svg width="22" height="22" viewBox="0 0 22 22" fill="none" xmlns="http://www.w3.org/2000/svg">
<path d="M1.0134 4.6468C0.518145 4.18697 0.271851 3.6178 0.271851 2.94058C0.271851 2.26335 0.519462 1.66912 1.0134 1.20797C1.50865 0.748149 2.14616 0.517578 2.92724 0.517578C3.70832 0.517578 4.32081 0.748149 4.81475 1.20797C5.31 1.6678 5.5563 2.24622 5.5563 2.94058C5.5563 3.63493 5.30869 4.18697 4.81475 4.6468C4.3195 5.10663 3.6912 5.3372 2.92724 5.3372C2.16329 5.3372 1.50865 5.10663 1.0134 4.6468ZM5.14009 7.28454V21.3824H0.686745V7.28454H5.14009Z" fill="#3C73A7"/>
<path d="M19.9705 8.67725C20.9415 9.7313 21.4264 11.178 21.4264 13.0199V21.1334H17.1957V13.5917C17.1957 12.6629 16.9546 11.9408 16.4737 11.427C15.9928 10.9132 15.3446 10.6549 14.533 10.6549C13.7214 10.6549 13.0731 10.9118 12.5922 11.427C12.1113 11.9408 11.8702 12.6629 11.8702 13.5917V21.1334H7.6145V7.24509H11.8702V9.08703C12.301 8.47305 12.8821 7.98818 13.612 7.63113C14.3419 7.27407 15.1628 7.09619 16.0758 7.09619C17.7017 7.09619 19.0008 7.62321 19.9705 8.67725Z" fill="#3C73A7"/>
</svg>
