<svg width="25" height="25" viewBox="0 0 25 25" fill="none" xmlns="http://www.w3.org/2000/svg">
<path d="M8.68994 19.0376H8.18994C4.18994 19.0376 2.18994 18.0376 2.18994 13.0376V8.0376C2.18994 4.0376 4.18994 2.0376 8.18994 2.0376H16.1899C20.1899 2.0376 22.1899 4.0376 22.1899 8.0376V13.0376C22.1899 17.0376 20.1899 19.0376 16.1899 19.0376H15.6899C15.3799 19.0376 15.0799 19.1876 14.8899 19.4376L13.3899 21.4376C12.7299 22.3176 11.6499 22.3176 10.9899 21.4376L9.48994 19.4376C9.32994 19.2176 8.95994 19.0376 8.68994 19.0376Z" stroke="#3C73A7" stroke-width="1.5" stroke-miterlimit="10" stroke-linecap="round" stroke-linejoin="round"/>
<path d="M16.1864 11.0376H16.1954" stroke="#3C73A7" stroke-width="2" stroke-linecap="round" stroke-linejoin="round"/>
<path d="M12.1854 11.0376H12.1944" stroke="#3C73A7" stroke-width="2" stroke-linecap="round" stroke-linejoin="round"/>
<path d="M8.18445 11.0376H8.19343" stroke="#3C73A7" stroke-width="2" stroke-linecap="round" stroke-linejoin="round"/>
</svg>
