<svg width="24" height="25" viewBox="0 0 24 25" fill="none" xmlns="http://www.w3.org/2000/svg">
<path d="M20 7.0376V17.0376C20 21.0376 19 22.0376 15 22.0376H9C5 22.0376 4 21.0376 4 17.0376V7.0376C4 3.0376 5 2.0376 9 2.0376H15C19 2.0376 20 3.0376 20 7.0376Z" stroke="#3C73A7" stroke-width="1.5" stroke-linecap="round" stroke-linejoin="round"/>
<path d="M14 5.5376H10" stroke="#3C73A7" stroke-width="1.5" stroke-linecap="round" stroke-linejoin="round"/>
<path d="M12 19.1376C12.8561 19.1376 13.55 18.4436 13.55 17.5876C13.55 16.7316 12.8561 16.0376 12 16.0376C11.144 16.0376 10.45 16.7316 10.45 17.5876C10.45 18.4436 11.144 19.1376 12 19.1376Z" stroke="#3C73A7" stroke-width="1.5" stroke-linecap="round" stroke-linejoin="round"/>
</svg>
