<svg width="24" height="25" viewBox="0 0 24 25" fill="none" xmlns="http://www.w3.org/2000/svg">
<path d="M17 20.7979H7C4 20.7979 2 19.2979 2 15.7979V8.79785C2 5.29785 4 3.79785 7 3.79785H17C20 3.79785 22 5.29785 22 8.79785V15.7979C22 19.2979 20 20.7979 17 20.7979Z" stroke="#00386C" stroke-miterlimit="10" stroke-linecap="round" stroke-linejoin="round"/>
<path d="M12 15.2979C13.6569 15.2979 15 13.9547 15 12.2979C15 10.641 13.6569 9.29785 12 9.29785C10.3431 9.29785 9 10.641 9 12.2979C9 13.9547 10.3431 15.2979 12 15.2979Z" stroke="#00386C" stroke-miterlimit="10" stroke-linecap="round" stroke-linejoin="round"/>
<path d="M5.5 9.79785V14.7979" stroke="#00386C" stroke-miterlimit="10" stroke-linecap="round" stroke-linejoin="round"/>
<path d="M18.5 9.79785V14.7979" stroke="#00386C" stroke-miterlimit="10" stroke-linecap="round" stroke-linejoin="round"/>
</svg>
