<svg width="71" height="70" viewBox="0 0 71 70" fill="none" xmlns="http://www.w3.org/2000/svg">
<path opacity="0.2" d="M8.98487 52.996C13.8378 54.5481 17.9304 54.1231 21.2626 51.721C24.5949 49.3189 27.042 46.0941 28.6039 42.0467C30.489 37.162 31.3163 32.1095 31.0859 26.8894C30.7698 21.4758 29.653 16.4749 27.7356 11.8866C25.8183 7.29825 23.2178 3.64893 19.9343 0.93864L12.2439 5.9082C13.5735 7.86446 14.7415 10.2394 15.748 13.033C16.6687 15.6333 17.3961 18.3192 17.93 21.0908C18.3243 23.8086 18.3697 26.3917 18.0663 28.8402C15.5002 28.0103 13.0946 27.8036 10.8494 28.2199C8.65801 28.4967 6.75069 29.284 5.12742 30.5817C3.50415 31.8795 2.23471 33.7147 1.3191 36.0873C-0.188959 39.9951 -0.187566 43.5234 1.3233 46.672C2.88802 49.6811 5.44188 51.7891 8.98487 52.996ZM48.3423 68.1843C53.2809 69.9299 57.4163 69.6016 60.7486 67.1994C64.1347 64.6578 66.6087 61.3632 68.1706 57.3159C70.0557 52.4311 70.883 47.3786 70.6526 42.1585C70.3365 36.745 69.2197 31.744 67.3024 27.1557C65.385 22.5674 62.7845 18.9181 59.501 16.2078L51.8106 21.1773C53.1402 23.1336 54.3083 25.5085 55.3147 28.3022C56.2355 30.9024 56.9628 33.5883 57.4967 36.36C57.8911 39.0777 57.9365 41.6609 57.633 44.1093C55.067 43.2794 52.6613 43.0727 50.4161 43.489C48.2247 43.7658 46.3174 44.5531 44.6942 45.8508C43.0709 47.1486 41.8015 48.9838 40.8858 51.3564C39.3778 55.2642 39.4759 58.7496 41.1802 61.8126C42.7449 64.8217 45.1323 66.9456 48.3423 68.1843Z" fill="#00386C"/>
</svg>
